<svg width="206" height="59" viewBox="0 0 206 59" fill="none" xmlns="http://www.w3.org/2000/svg">
<path d="M78.8224 40.413C76.3054 40.413 74.3094 39.705 72.8346 38.2892C71.3597 36.8537 70.6223 34.7889 70.6223 32.0949V27.2574C70.6223 24.5633 71.3597 22.5084 72.8346 21.0925C74.3094 19.657 76.3054 18.9393 78.8224 18.9393C81.3002 18.9393 83.2076 19.6275 84.5448 21.0041C85.9017 22.3806 86.5801 24.2585 86.5801 26.6379V26.8149H83.4239V26.5495C83.4239 25.1533 83.0405 24.0127 82.2736 23.1278C81.5263 22.2429 80.3759 21.8005 78.8224 21.8005C77.2493 21.8005 76.0202 22.2823 75.1353 23.2458C74.2504 24.1897 73.808 25.5072 73.808 27.1984V32.1539C73.808 33.8253 74.2504 35.1429 75.1353 36.1064C76.0202 37.07 77.2493 37.5518 78.8224 37.5518C80.3759 37.5518 81.5263 37.1093 82.2736 36.2244C83.0405 35.3198 83.4239 34.1793 83.4239 32.8028V32.3013H86.5801V32.7143C86.5801 35.0937 85.9017 36.9717 84.5448 38.3482C83.2076 39.7247 81.3002 40.413 78.8224 40.413ZM90.1073 40V19.3522H98.7793C100.058 19.3522 101.178 19.5784 102.142 20.0307C103.125 20.4633 103.882 21.0925 104.413 21.9185C104.964 22.7444 105.239 23.7276 105.239 24.8681V25.1926C105.239 26.4905 104.924 27.5327 104.295 28.3193C103.686 29.0862 102.938 29.627 102.053 29.9416V30.4135C102.801 30.4529 103.4 30.7085 103.853 31.1805C104.305 31.6327 104.531 32.2915 104.531 33.1567V40H101.316V33.5992C101.316 33.0683 101.178 32.6455 100.903 32.3308C100.628 32.0162 100.185 31.8589 99.5757 31.8589H93.2929V40H90.1073ZM93.2929 28.9682H98.4254C99.5659 28.9682 100.451 28.6831 101.08 28.1128C101.709 27.5229 102.024 26.7264 102.024 25.7235V25.4876C102.024 24.4847 101.709 23.6981 101.08 23.1278C100.47 22.5379 99.5856 22.2429 98.4254 22.2429H93.2929V28.9682ZM107.211 40L113.11 19.3522H118.714L124.584 40H121.31L119.953 35.133H111.871L110.514 40H107.211ZM112.667 32.1833H119.157L116.148 21.3285H115.676L112.667 32.1833ZM127.382 40V19.3522H140.124V22.2429H130.567V28.2013H139.357V31.092H130.567V40H127.382ZM148.151 40V22.2429H141.809V19.3522H157.678V22.2429H151.336V40H148.151ZM160.337 40V25.4581H163.375V40H160.337ZM161.871 23.4818C161.281 23.4818 160.78 23.295 160.367 22.9214C159.973 22.5281 159.777 22.0266 159.777 21.417C159.777 20.8074 159.973 20.3158 160.367 19.9422C160.78 19.5489 161.281 19.3522 161.871 19.3522C162.481 19.3522 162.982 19.5489 163.375 19.9422C163.769 20.3158 163.965 20.8074 163.965 21.417C163.965 22.0266 163.769 22.5281 163.375 22.9214C162.982 23.295 162.481 23.4818 161.871 23.4818ZM170.509 40V28.0243H166.439V25.4581H170.509V22.2724C170.509 21.3875 170.775 20.6796 171.306 20.1487C171.837 19.6177 172.545 19.3522 173.43 19.3522H177.176V21.9185H174.403C173.833 21.9185 173.547 22.2134 173.547 22.8034V25.4581H177.736V28.0243H173.547V40H170.509ZM182.528 45.8994V43.2446H190.64C191.19 43.2446 191.465 42.9497 191.465 42.3597V37.8762H190.993C190.816 38.2695 190.541 38.653 190.168 39.0266C189.814 39.3806 189.332 39.6755 188.722 39.9115C188.113 40.1475 187.346 40.2655 186.421 40.2655C185.32 40.2655 184.337 40.0197 183.472 39.5281C182.607 39.0364 181.928 38.3383 181.437 37.4338C180.945 36.5292 180.699 35.4575 180.699 34.2186V25.4581H183.737V33.9827C183.737 35.2412 184.052 36.1752 184.681 36.7848C185.31 37.3748 186.185 37.6698 187.306 37.6698C188.545 37.6698 189.538 37.2568 190.286 36.4309C191.052 35.605 191.436 34.4054 191.436 32.8323V25.4581H194.474V42.9792C194.474 43.8641 194.209 44.572 193.678 45.1029C193.166 45.6339 192.458 45.8994 191.554 45.8994H182.528Z" fill="black"/>
<g clip-path="url(#clip0_1060_68)">
<rect width="59" height="59" rx="5.80328" fill="#AE0057"/>
<path d="M21.6139 44.396H15.9183C14.9113 44.396 13.9455 43.996 13.2334 43.2839C12.5213 42.5718 12.1213 41.606 12.1213 40.599V17.8168C12.1213 16.8098 12.5213 15.844 13.2334 15.1319C13.9455 14.4198 14.9113 14.0198 15.9183 14.0198H21.6139C22.6209 14.0198 23.5867 14.4198 24.2988 15.1319C25.0108 15.844 25.4109 16.8098 25.4109 17.8168V40.599C25.4109 41.606 25.0108 42.5718 24.2988 43.2839C23.5867 43.996 22.6209 44.396 21.6139 44.396ZM36.802 25.4109H44.396C45.4031 25.4109 46.3689 25.0108 47.0809 24.2988C47.793 23.5867 48.1931 22.6209 48.1931 21.6139V15.9183C48.1931 14.9113 47.793 13.9455 47.0809 13.2334C46.3689 12.5213 45.4031 12.1213 44.396 12.1213H36.802C35.7949 12.1213 34.8291 12.5213 34.1171 13.2334C33.405 13.9455 33.0049 14.9113 33.0049 15.9183V21.6139C33.0049 22.6209 33.405 23.5867 34.1171 24.2988C34.8291 25.0108 35.7949 25.4109 36.802 25.4109ZM46.2945 44.396V33.0049C46.2945 31.9979 45.8945 31.0321 45.1824 30.32C44.4703 29.608 43.5045 29.2079 42.4975 29.2079H33.0049C31.9979 29.2079 31.0321 29.608 30.32 30.32C29.608 31.0321 29.2079 31.9979 29.2079 33.0049V44.396C29.2079 45.4031 29.608 46.3689 30.32 47.0809C31.0321 47.793 31.9979 48.1931 33.0049 48.1931H42.4975C43.5045 48.1931 44.4703 47.793 45.1824 47.0809C45.8945 46.3689 46.2945 45.4031 46.2945 44.396Z" fill="white"/>
</g>
<defs>
<clipPath id="clip0_1060_68">
<rect width="59" height="59" fill="white"/>
</clipPath>
</defs>
</svg>
