<svg width="101" height="101" viewBox="0 0 101 101" fill="none" xmlns="http://www.w3.org/2000/svg">
<g clip-path="url(#clip0_1054_57)">
<rect width="101" height="101" rx="9.93443" fill="#AE0057"/>
<path d="M37 76H27.25C25.5261 76 23.8728 75.3152 22.6538 74.0962C21.4348 72.8772 20.75 71.2239 20.75 69.5V30.5C20.75 28.7761 21.4348 27.1228 22.6538 25.9038C23.8728 24.6848 25.5261 24 27.25 24H37C38.7239 24 40.3772 24.6848 41.5962 25.9038C42.8152 27.1228 43.5 28.7761 43.5 30.5V69.5C43.5 71.2239 42.8152 72.8772 41.5962 74.0962C40.3772 75.3152 38.7239 76 37 76ZM63 43.5H76C77.7239 43.5 79.3772 42.8152 80.5962 41.5962C81.8152 40.3772 82.5 38.7239 82.5 37V27.25C82.5 25.5261 81.8152 23.8728 80.5962 22.6538C79.3772 21.4348 77.7239 20.75 76 20.75H63C61.2761 20.75 59.6228 21.4348 58.4038 22.6538C57.1848 23.8728 56.5 25.5261 56.5 27.25V37C56.5 38.7239 57.1848 40.3772 58.4038 41.5962C59.6228 42.8152 61.2761 43.5 63 43.5ZM79.25 76V56.5C79.25 54.7761 78.5652 53.1228 77.3462 51.9038C76.1272 50.6848 74.4739 50 72.75 50H56.5C54.7761 50 53.1228 50.6848 51.9038 51.9038C50.6848 53.1228 50 54.7761 50 56.5V76C50 77.7239 50.6848 79.3772 51.9038 80.5962C53.1228 81.8152 54.7761 82.5 56.5 82.5H72.75C74.4739 82.5 76.1272 81.8152 77.3462 80.5962C78.5652 79.3772 79.25 77.7239 79.25 76Z" fill="white"/>
</g>
<defs>
<clipPath id="clip0_1054_57">
<rect width="101" height="101" fill="white"/>
</clipPath>
</defs>
</svg>
