<svg width="126" height="59" viewBox="0 0 126 59" fill="none" xmlns="http://www.w3.org/2000/svg">
<path d="M71.1533 40V19.3522H83.8959V22.2429H74.3389V28.2013H83.129V31.092H74.3389V40H71.1533ZM86.9963 40V19.3522H90.1819V37.1093H100.122V40H86.9963ZM110.165 40.413C107.628 40.413 105.613 39.705 104.118 38.2892C102.624 36.8537 101.876 34.7889 101.876 32.0949V27.2574C101.876 24.5633 102.624 22.5084 104.118 21.0925C105.613 19.657 107.628 18.9393 110.165 18.9393C112.702 18.9393 114.717 19.657 116.212 21.0925C117.726 22.5084 118.483 24.5633 118.483 27.2574V32.0949C118.483 34.7889 117.726 36.8537 116.212 38.2892C114.717 39.705 112.702 40.413 110.165 40.413ZM110.165 37.5518C111.797 37.5518 113.056 37.0798 113.94 36.1359C114.825 35.1724 115.268 33.8647 115.268 32.2128V27.1394C115.268 25.4876 114.825 24.1897 113.94 23.2458C113.056 22.2823 111.797 21.8005 110.165 21.8005C108.572 21.8005 107.323 22.2823 106.419 23.2458C105.514 24.1897 105.062 25.4876 105.062 27.1394V32.2128C105.062 33.8647 105.514 35.1724 106.419 36.1359C107.323 37.0798 108.572 37.5518 110.165 37.5518Z" fill="black"/>
<g clip-path="url(#clip0_1060_68)">
<rect width="59" height="59" rx="5.80328" fill="#AE0057"/>
<path d="M21.6139 44.396H15.9183C14.9113 44.396 13.9455 43.996 13.2334 43.2839C12.5213 42.5718 12.1213 41.606 12.1213 40.599V17.8168C12.1213 16.8098 12.5213 15.844 13.2334 15.1319C13.9455 14.4198 14.9113 14.0198 15.9183 14.0198H21.6139C22.6209 14.0198 23.5867 14.4198 24.2988 15.1319C25.0108 15.844 25.4109 16.8098 25.4109 17.8168V40.599C25.4109 41.606 25.0108 42.5718 24.2988 43.2839C23.5867 43.996 22.6209 44.396 21.6139 44.396ZM36.802 25.4109H44.396C45.4031 25.4109 46.3689 25.0108 47.0809 24.2988C47.793 23.5867 48.1931 22.6209 48.1931 21.6139V15.9183C48.1931 14.9113 47.793 13.9455 47.0809 13.2334C46.3689 12.5213 45.4031 12.1213 44.396 12.1213H36.802C35.7949 12.1213 34.8291 12.5213 34.1171 13.2334C33.405 13.9455 33.0049 14.9113 33.0049 15.9183V21.6139C33.0049 22.6209 33.405 23.5867 34.1171 24.2988C34.8291 25.0108 35.7949 25.4109 36.802 25.4109ZM46.2945 44.396V33.0049C46.2945 31.9979 45.8945 31.0321 45.1824 30.32C44.4703 29.608 43.5045 29.2079 42.4975 29.2079H33.0049C31.9979 29.2079 31.0321 29.608 30.32 30.32C29.608 31.0321 29.2079 31.9979 29.2079 33.0049V44.396C29.2079 45.4031 29.608 46.3689 30.32 47.0809C31.0321 47.793 31.9979 48.1931 33.0049 48.1931H42.4975C43.5045 48.1931 44.4703 47.793 45.1824 47.0809C45.8945 46.3689 46.2945 45.4031 46.2945 44.396Z" fill="white"/>
</g>
<defs>
<clipPath id="clip0_1060_68">
<rect width="59" height="59" fill="white"/>
</clipPath>
</defs>
</svg>
