<svg width="270" height="180" viewBox="0 0 270 180" fill="none" xmlns="http://www.w3.org/2000/svg">
<path d="M240.102 54.0972L236.657 70.7832L234.439 68.6196L230.666 71.3124L227.783 67.7304L221.317 72.432L215.791 63.1908L209.628 66.8016L207.184 63.432L199.357 67.842L197.003 62.7984L202.489 36.2268L231.901 42.3L240.102 54.0972Z" fill="#EBEBEB"/>
<path d="M231.901 42.3L240.102 54.0972L229.9 51.9912L231.901 42.3Z" fill="#DBDBDB"/>
<path d="M235.922 74.1168L230.872 98.5968L191.254 90.4176L196.268 66.1356L198.623 71.1756L206.453 66.7656L208.894 70.1352L215.06 66.528L220.583 75.7692L227.052 71.0676L229.932 74.646L233.708 71.9568L235.922 74.1168Z" fill="#EBEBEB"/>
<path d="M179.219 71.2476L138.845 73.746L135.637 21.9204L165.618 20.0628L176.623 29.2968L179.219 71.2476Z" fill="#EBEBEB"/>
<path d="M165.618 20.0628L176.623 29.2968L166.226 29.9412L165.618 20.0628Z" fill="#DBDBDB"/>
<path d="M154.44 54.936L154.282 53.766C153.875 51.3432 154.537 48.6324 156.643 45.7992C158.544 43.2792 159.574 41.4792 159.458 39.4344C159.329 37.1304 157.799 35.676 154.951 35.7912C153.324 35.8757 151.761 36.4533 150.469 37.4472L149.227 34.6644C150.667 33.4944 153.187 32.6304 155.581 32.5044C160.776 32.2164 163.303 35.2908 163.501 38.7216C163.674 41.7924 162.083 44.1 160.06 46.7964C158.202 49.2552 157.594 51.282 157.856 53.5752L157.968 54.7488L154.44 54.936ZM153.799 61.3116C153.706 59.6412 154.768 58.4028 156.348 58.3164C157.928 58.23 159.08 59.3388 159.174 61.0128C159.26 62.5932 158.292 63.8676 156.622 63.9612C155.027 64.0512 153.875 62.892 153.785 61.3116H153.799Z" fill="#DBDBDB"/>
<path d="M53.4528 46.1196L49.392 44.28L48.8268 45.522C48.7434 45.6995 48.6131 45.8509 48.4501 45.96C48.2871 46.0691 48.0975 46.1318 47.9016 46.1412C47.6785 46.1485 47.456 46.1702 47.2356 46.206C47.0422 46.2348 46.8445 46.2104 46.6638 46.1356C46.4831 46.0608 46.3261 45.9383 46.2096 45.7812L45.414 44.6688L41.7888 47.268L42.5844 48.3804C42.6951 48.541 42.7602 48.7285 42.7729 48.9231C42.7855 49.1177 42.7453 49.3121 42.6564 49.4856C42.5538 49.6836 42.4613 49.8867 42.3792 50.094C42.3079 50.2769 42.1881 50.4368 42.0327 50.5567C41.8773 50.6766 41.6922 50.7519 41.4972 50.7744L40.14 50.9076L40.5756 55.3464L41.94 55.2096C42.1357 55.194 42.3319 55.232 42.5076 55.3195C42.6833 55.4071 42.8318 55.5408 42.9372 55.7064C42.9948 55.8 43.056 55.89 43.1208 55.98C43.1856 56.07 43.2504 56.1564 43.3188 56.2428C43.443 56.394 43.5229 56.5766 43.5496 56.7705C43.5763 56.9643 43.5488 57.1617 43.47 57.3408L42.9012 58.5936L46.9656 60.4368L47.5308 59.1876C47.6151 59.0103 47.746 58.8593 47.9097 58.7508C48.0733 58.6423 48.2635 58.5805 48.4596 58.572C48.6803 58.5629 48.9002 58.5413 49.1184 58.5072C49.3119 58.4785 49.5095 58.5028 49.6902 58.5777C49.8709 58.6525 50.0279 58.775 50.1444 58.932L50.94 60.0444L54.5688 57.4452L53.7732 56.3328C53.6591 56.1737 53.5919 55.9859 53.5792 55.7905C53.5665 55.5952 53.6088 55.4002 53.7012 55.2276C53.8015 55.0308 53.8916 54.8289 53.9712 54.6228C54.0404 54.4386 54.1597 54.2774 54.3155 54.1572C54.4713 54.037 54.6575 53.9626 54.8532 53.9424L56.2176 53.8056L55.7784 49.3668L54.414 49.5C54.2196 49.5171 54.0242 49.4801 53.8495 49.393C53.6747 49.306 53.5275 49.1723 53.424 49.0068C53.3628 48.9132 53.3016 48.8232 53.2368 48.7332C53.172 48.6432 53.1072 48.5532 53.0388 48.4704C52.9154 48.3174 52.8361 48.1336 52.8095 47.9389C52.7828 47.7441 52.8099 47.5458 52.8876 47.3652L53.4528 46.1196ZM51.1488 50.2272C51.5698 50.8147 51.8071 51.5138 51.8307 52.2362C51.8544 52.9585 51.6632 53.6717 51.2815 54.2854C50.8998 54.8991 50.3447 55.3859 49.6863 55.6841C49.028 55.9823 48.296 56.0786 47.5829 55.9607C46.8699 55.8429 46.2077 55.5162 45.6803 55.0221C45.1529 54.5279 44.7839 53.8884 44.62 53.1845C44.456 52.4806 44.5045 51.7439 44.7592 51.0676C45.014 50.3912 45.4636 49.8056 46.0512 49.3848C46.839 48.8207 47.8185 48.5925 48.7744 48.7505C49.7304 48.9085 50.5844 49.4397 51.1488 50.2272Z" fill="#EBEBEB"/>
<path d="M237.017 105.016L234.31 106.578L234.788 107.406C234.86 107.525 234.895 107.662 234.891 107.8C234.887 107.939 234.842 108.073 234.763 108.187C234.68 108.317 234.601 108.45 234.529 108.59C234.47 108.715 234.377 108.819 234.26 108.892C234.143 108.965 234.008 109.002 233.87 109.001H232.92V112.129H233.878C234.015 112.127 234.15 112.165 234.267 112.238C234.384 112.311 234.477 112.415 234.536 112.54C234.608 112.68 234.688 112.813 234.77 112.943C234.849 113.057 234.894 113.191 234.898 113.33C234.903 113.468 234.867 113.605 234.796 113.724L234.317 114.552L237.024 116.114L237.506 115.283C237.576 115.165 237.678 115.069 237.799 115.005C237.92 114.941 238.057 114.913 238.194 114.923H238.655C238.791 114.913 238.928 114.942 239.049 115.006C239.171 115.069 239.272 115.165 239.342 115.283L239.825 116.118L242.528 114.556L242.05 113.724C241.981 113.605 241.948 113.468 241.953 113.331C241.958 113.194 242.002 113.06 242.078 112.946C242.161 112.817 242.24 112.68 242.312 112.543C242.372 112.419 242.465 112.314 242.582 112.242C242.699 112.169 242.834 112.131 242.971 112.133H243.929V109.004H242.964C242.826 109.006 242.691 108.968 242.575 108.896C242.458 108.823 242.364 108.718 242.305 108.594C242.233 108.457 242.154 108.32 242.071 108.191C241.994 108.077 241.951 107.943 241.946 107.806C241.941 107.669 241.974 107.533 242.042 107.413L242.521 106.582L239.818 105.019L239.335 105.84C239.265 105.958 239.164 106.054 239.043 106.118C238.921 106.181 238.784 106.21 238.648 106.2H238.417H238.187C238.05 106.209 237.913 106.18 237.791 106.117C237.669 106.053 237.567 105.958 237.496 105.84L237.017 105.016ZM238.417 108.004C238.924 108.003 239.421 108.153 239.843 108.434C240.265 108.715 240.594 109.116 240.788 109.584C240.983 110.053 241.034 110.568 240.935 111.066C240.836 111.563 240.592 112.021 240.233 112.379C239.875 112.738 239.417 112.982 238.92 113.081C238.422 113.18 237.907 113.129 237.438 112.934C236.97 112.74 236.569 112.411 236.288 111.989C236.007 111.566 235.857 111.07 235.858 110.563C235.857 110.227 235.923 109.894 236.051 109.583C236.18 109.272 236.368 108.989 236.606 108.751C236.844 108.513 237.126 108.324 237.437 108.195C237.748 108.066 238.081 108 238.417 108V108.004Z" fill="#EBEBEB"/>
<path d="M61.668 32.8176L59.1876 34.7184L59.76 35.478C59.8454 35.5862 59.8979 35.7167 59.9113 35.8539C59.9247 35.9911 59.8984 36.1293 59.8356 36.252C59.7667 36.3921 59.7066 36.5364 59.6556 36.684C59.6112 36.814 59.5315 36.9291 59.4252 37.0162C59.319 37.1033 59.1906 37.1591 59.0544 37.1772L58.104 37.2996L58.5072 40.3992L59.4576 40.2768C59.596 40.2575 59.7369 40.2777 59.8643 40.335C59.9917 40.3923 60.1003 40.4845 60.1776 40.6008C60.2643 40.726 60.358 40.8462 60.4584 40.9608C60.5512 41.0628 60.6127 41.1893 60.6356 41.3252C60.6586 41.4611 60.6421 41.6008 60.588 41.7276L60.228 42.6132L63.108 43.812L63.468 42.9264C63.5216 42.7993 63.6097 42.6898 63.7223 42.6103C63.8349 42.5308 63.9676 42.4844 64.1052 42.4764L64.3356 42.4512L64.5624 42.4152C64.6956 42.3901 64.8332 42.402 64.9601 42.4496C65.0871 42.4972 65.1985 42.5787 65.2824 42.6852L65.8692 43.452L68.3496 41.5512L67.77 40.7916C67.6863 40.6818 67.6349 40.5509 67.6215 40.4135C67.6081 40.2762 67.6334 40.1378 67.6944 40.014C67.7626 39.8748 67.8227 39.7318 67.8744 39.5856C67.9188 39.4556 67.9986 39.3405 68.1048 39.2534C68.211 39.1662 68.3394 39.1105 68.4756 39.0924L69.426 38.97L69.0228 35.8704L68.0724 35.9928C67.9344 36.0124 67.7937 35.9928 67.6663 35.9361C67.539 35.8795 67.4302 35.7881 67.3524 35.6724C67.2624 35.5428 67.1688 35.4204 67.068 35.3124C66.9841 35.2082 66.9299 35.0834 66.9109 34.951C66.8919 34.8186 66.9088 34.6836 66.96 34.56L67.32 33.6744L64.44 32.4756L64.08 33.3612C64.0257 33.4877 63.9375 33.5968 63.825 33.6762C63.7125 33.7557 63.5802 33.8024 63.4428 33.8112L63.2124 33.8328L63 33.84C62.8668 33.8651 62.7292 33.8532 62.6023 33.8056C62.4753 33.758 62.3639 33.6765 62.28 33.57L61.668 32.8176ZM63.4428 35.6004C63.9443 35.5359 64.4536 35.6214 64.9066 35.8461C65.3595 36.0708 65.7357 36.4245 65.9878 36.8628C66.24 37.3011 66.3566 37.8042 66.3231 38.3087C66.2896 38.8131 66.1075 39.2964 65.7996 39.6975C65.4918 40.0986 65.0721 40.3995 64.5934 40.5623C64.1148 40.7252 63.5986 40.7426 63.1101 40.6124C62.6215 40.4822 62.1824 40.2102 61.8483 39.8308C61.5141 39.4514 61.2998 38.9815 61.2324 38.4804C61.1874 38.146 61.209 37.806 61.2959 37.48C61.3827 37.154 61.5332 36.8483 61.7387 36.5807C61.9441 36.313 62.2004 36.0886 62.4929 35.9204C62.7853 35.7522 63.1082 35.6434 63.4428 35.6004Z" fill="#EBEBEB"/>
<path d="M43.1352 114.041C43.2704 110.561 43.2224 107.076 42.9912 103.601C42.4761 96.425 41.3817 89.3026 39.7188 82.3032C38.8044 78.3648 37.6812 74.4912 36.5076 70.6212C36.4716 70.5024 36.2844 70.5348 36.3168 70.6572C39.942 84.3012 42.9156 98.3772 42.7104 112.561C42.6528 116.521 42.192 120.427 41.8176 124.373C41.8176 124.477 41.9796 124.52 42.0048 124.412C42.75 121.025 42.9948 117.49 43.1352 114.041Z" fill="#EBEBEB"/>
<path d="M36.3168 70.6464C36.3168 70.6464 30.8304 84.5784 32.058 87.84C33.2856 91.1016 35.82 91.8 35.82 91.8C35.82 91.8 32.4612 96.5952 34.8084 101.092C37.1556 105.588 42.3684 105.376 42.7284 110.473C42.7176 110.498 43.0056 89.1828 36.3168 70.6464Z" fill="#EBEBEB"/>
<path d="M42.12 101.696C42.1289 101.673 42.1289 101.648 42.12 101.624C41.3999 92.1128 39.6152 82.7121 36.7992 73.5984C36.7992 73.5732 36.7452 73.5804 36.7524 73.5984C37.8396 77.6784 38.7996 81.7752 39.6324 85.8888C38.8948 85.19 37.9937 84.6875 37.0116 84.4272C37.0116 84.4272 36.9828 84.4488 37.0116 84.456C38.0433 84.8341 38.971 85.4509 39.7188 86.256C39.8772 87.066 40.0356 87.8724 40.1832 88.6824C38.9556 87.3108 37.2564 86.6304 35.5536 85.9824C35.5497 85.9841 35.5465 85.9868 35.5442 85.9904C35.5418 85.9939 35.5406 85.998 35.5406 86.0022C35.5406 86.0064 35.5418 86.0105 35.5442 86.014C35.5465 86.0176 35.5497 86.0203 35.5536 86.022C37.3284 86.742 39.0924 87.6708 40.2948 89.2008C40.7124 91.512 41.0796 93.8316 41.3964 96.1596C40.51 95.231 39.3733 94.5795 38.124 94.284C38.0844 94.284 38.0628 94.3308 38.1024 94.3416C39.3857 94.7195 40.5314 95.4625 41.4 96.48H41.4216C41.5296 97.296 41.6328 98.1156 41.7312 98.9388C41.0455 98.3585 40.2713 97.8918 39.438 97.5564C39.4164 97.5564 39.402 97.5816 39.438 97.5888C40.2884 97.9572 41.0671 98.4727 41.7384 99.1116C41.7384 99.1116 41.7564 99.1116 41.7672 99.1116C41.8572 99.8928 41.9472 100.674 42.0264 101.455C40.7902 99.9608 39.1859 98.8143 37.3716 98.1288C37.3639 98.1288 37.3566 98.1318 37.3512 98.1372C37.3458 98.1426 37.3428 98.15 37.3428 98.1576C37.3428 98.1652 37.3458 98.1726 37.3512 98.178C37.3566 98.1834 37.3639 98.1864 37.3716 98.1864C39.1631 98.976 40.7367 100.188 41.958 101.718C41.9714 101.735 41.9896 101.747 42.0101 101.754C42.0306 101.76 42.0526 101.76 42.0732 101.754C42.192 102.953 42.3 104.152 42.3864 105.354C42.3864 105.372 42.4152 105.372 42.4152 105.354C42.3216 104.147 42.2232 102.928 42.12 101.696Z" fill="white"/>
<path d="M37.71 83.0556C36.7164 82.4372 35.5813 82.0828 34.4124 82.026C34.4067 82.026 34.4012 82.0283 34.3971 82.0323C34.3931 82.0364 34.3908 82.0419 34.3908 82.0476C34.3908 82.0533 34.3931 82.0588 34.3971 82.0629C34.4012 82.0669 34.4067 82.0692 34.4124 82.0692C35.5425 82.2835 36.6393 82.6467 37.674 83.1492C37.7172 83.16 37.7496 83.0844 37.71 83.0556Z" fill="white"/>
<path d="M38.376 97.8048C37.6123 97.3665 36.7714 97.0793 35.8992 96.9588C35.8704 96.9588 35.8668 96.9984 35.8992 97.0056C36.7509 97.1764 37.5748 97.4648 38.3472 97.8624C38.3796 97.8804 38.4084 97.8228 38.376 97.8048Z" fill="white"/>
<path d="M57.564 88.0812C55.243 89.6856 53.1114 91.5479 51.21 93.6324C49.2491 95.8396 47.7366 98.4073 46.7568 101.192C44.6716 106.995 43.5504 113.1 43.4376 119.264C43.3677 122.678 43.6951 126.089 44.4132 129.427C44.419 129.451 44.434 129.473 44.4549 129.486C44.4759 129.5 44.5012 129.505 44.5257 129.5C44.5503 129.495 44.5721 129.482 44.5866 129.461C44.6012 129.441 44.6074 129.416 44.604 129.391C43.7104 123.5 43.7444 117.506 44.7048 111.625C45.648 105.865 47.1276 99.594 50.7924 94.9104C52.7868 92.358 55.2744 90.3528 57.7332 88.2792C57.8628 88.164 57.6972 87.9876 57.564 88.0812Z" fill="#EBEBEB"/>
<path d="M44.244 115.11C45.5651 112.973 47.1177 110.988 48.8736 109.192C51.6204 106.445 53.9316 104.494 54.2916 102.679C54.6516 100.865 51.5412 99.5256 51.5412 99.5256C51.5412 99.5256 55.3392 100.21 56.3796 98.6148C57.42 97.02 57.9204 87.7824 57.9204 87.7824C57.9204 87.7824 51.0084 92.718 47.7864 99.6372C44.5644 106.556 44.244 115.11 44.244 115.11Z" fill="#EBEBEB"/>
<path d="M55.44 96.4476C54.9849 96.3798 54.5235 96.3641 54.0648 96.4008C54.0108 96.4008 54.0144 96.4944 54.0648 96.498C54.5184 96.498 54.9756 96.4764 55.4292 96.498C55.4344 96.4966 55.4391 96.4939 55.4428 96.49C55.4465 96.4862 55.4491 96.4814 55.4502 96.4761C55.4513 96.4709 55.451 96.4654 55.4492 96.4604C55.4474 96.4554 55.4442 96.4509 55.44 96.4476Z" fill="white"/>
<path d="M50.4756 105.408C49.7457 105.423 49.0242 105.567 48.3444 105.833C48.3444 105.833 48.3444 105.869 48.3444 105.865C49.0644 105.696 49.7592 105.628 50.472 105.505C50.4813 105.501 50.4893 105.494 50.495 105.486C50.5007 105.478 50.5039 105.468 50.5043 105.458C50.5047 105.448 50.5022 105.437 50.4971 105.429C50.492 105.42 50.4846 105.413 50.4756 105.408Z" fill="white"/>
<path d="M48.9852 102.312C48.6822 102.31 48.3796 102.336 48.0816 102.391C48.0761 102.393 48.0713 102.397 48.068 102.402C48.0646 102.407 48.0628 102.412 48.0628 102.418C48.0628 102.424 48.0646 102.43 48.068 102.435C48.0713 102.439 48.0761 102.443 48.0816 102.445C48.3834 102.463 48.6861 102.449 48.9852 102.406C48.9976 102.406 49.0095 102.401 49.0183 102.392C49.0271 102.383 49.032 102.371 49.032 102.359C49.032 102.346 49.0271 102.334 49.0183 102.326C49.0095 102.317 48.9976 102.312 48.9852 102.312Z" fill="white"/>
<path d="M23.9796 97.8804C26.2293 98.643 28.3851 99.6587 30.4056 100.908C32.502 102.24 34.32 103.966 35.7588 105.991C38.786 110.205 41.1038 114.886 42.6204 119.848C43.4662 122.595 43.9882 125.432 44.1756 128.3C44.1717 128.319 44.1615 128.336 44.1467 128.348C44.132 128.359 44.1136 128.366 44.0946 128.366C44.0756 128.366 44.0572 128.359 44.0425 128.348C44.0277 128.336 44.0175 128.319 44.0136 128.3C43.3781 123.327 41.9666 118.483 39.8304 113.947C37.7316 109.501 35.0856 104.771 31.0392 101.826C28.836 100.224 26.3592 99.1728 23.8896 98.064C23.76 98.0208 23.85 97.8372 23.9796 97.8804Z" fill="#EBEBEB"/>
<path d="M41.0076 116.676C39.4436 115.253 37.7281 114.006 35.892 112.957C33.0336 111.37 30.7116 110.326 30.0024 108.94C29.2932 107.554 31.5 105.754 31.5 105.754C31.5 105.754 28.584 107.194 27.3744 106.132C26.1648 105.07 23.6232 97.7256 23.6232 97.7256C23.6232 97.7256 30.3588 100.12 34.56 104.976C38.7612 109.832 41.0076 116.676 41.0076 116.676Z" fill="#EBEBEB"/>
<path d="M35.4168 109.915C34.7546 109.869 34.0896 109.951 33.4584 110.156C33.4584 110.156 33.4584 110.189 33.4584 110.185C34.1024 110.075 34.753 110.007 35.406 109.984C35.4528 109.984 35.4636 109.919 35.4168 109.915Z" fill="white"/>
<path d="M29.5416 102.211C29.2395 102.187 28.9355 102.203 28.638 102.262C28.6056 102.262 28.6164 102.319 28.638 102.316C28.9368 102.283 29.2284 102.294 29.5236 102.287C29.5328 102.287 29.5418 102.284 29.5491 102.279C29.5564 102.273 29.5616 102.265 29.5637 102.256C29.5658 102.247 29.5648 102.238 29.5607 102.23C29.5567 102.222 29.55 102.215 29.5416 102.211Z" fill="white"/>
<path d="M49.6944 137.585H34.4916L36.6588 121.705L37.2132 117.634H46.9728L47.5272 121.705L49.6944 137.585Z" fill="#DBDBDB"/>
<path d="M47.5272 121.705H36.6588L37.2132 117.634H46.9728L47.5272 121.705Z" fill="#C7C7C7"/>
<path d="M48.366 116.222H35.8164V119.671H48.366V116.222Z" fill="#DBDBDB"/>
<path d="M24.8256 137.585L52.1892 137.498L79.5528 137.466L134.28 137.405L189.007 137.466L216.371 137.498L243.734 137.585L216.371 137.675L189.007 137.704L134.28 137.765L79.5528 137.704L52.1892 137.671L24.8256 137.585Z" fill="#263238"/>
<path d="M135 164.416C192.01 164.416 238.226 159.351 238.226 153.104C238.226 146.857 192.01 141.793 135 141.793C77.9896 141.793 31.7736 146.857 31.7736 153.104C31.7736 159.351 77.9896 164.416 135 164.416Z" fill="#EBEBEB"/>
<path d="M110.97 151.232C110.131 151.517 86.0796 151.592 85.158 151.024C84.798 150.808 84.5928 147.305 84.438 143.064C84.4056 142.15 84.3804 141.203 84.3588 140.245L82.44 127.415L98.5212 127.31L100.037 140.144L99.9756 142.967C99.9756 142.967 109.199 147.053 110.142 147.794C111.085 148.536 111.809 150.948 110.97 151.232Z" fill="#EB9481"/>
<path d="M110.97 151.232C110.131 151.517 86.0796 151.592 85.158 151.024C84.7332 150.757 84.5028 145.642 84.3732 140.245L100.019 140.144L99.9576 142.967C99.9576 142.967 109.181 147.053 110.124 147.794C111.067 148.536 111.809 150.948 110.97 151.232Z" fill="white"/>
<path d="M110.97 151.232C110.131 151.517 86.0796 151.592 85.158 151.024C84.798 150.808 84.5928 147.305 84.438 143.064L99.9432 142.967C99.9432 142.967 109.166 147.053 110.11 147.794C111.053 148.536 111.809 150.948 110.97 151.232Z" fill="#A6A6A6"/>
<path d="M110.621 150.271C106.589 150.185 90.3168 150.224 86.3244 150.448C86.292 150.448 86.292 150.469 86.3244 150.473C90.3204 150.642 106.592 150.473 110.621 150.336C110.707 150.332 110.707 150.271 110.621 150.271Z" fill="#263238"/>
<path d="M108.572 146.934C108.124 146.924 107.678 147.007 107.264 147.178C106.849 147.349 106.475 147.604 106.164 147.928C105.598 148.505 105.277 149.279 105.271 150.088C105.271 150.113 105.314 150.113 105.318 150.088C105.452 149.291 105.84 148.559 106.424 148.001C107.008 147.443 107.756 147.089 108.558 146.992C108.566 146.993 108.574 146.992 108.58 146.988C108.587 146.984 108.592 146.978 108.594 146.97C108.596 146.962 108.595 146.954 108.591 146.948C108.587 146.941 108.58 146.936 108.572 146.934Z" fill="#263238"/>
<path d="M101.52 143.363C99.9072 143.345 98.0388 143.921 97.038 145.246C97.002 145.296 97.074 145.35 97.1208 145.325C98.5299 144.581 100.014 143.99 101.549 143.561C101.573 143.554 101.593 143.539 101.607 143.519C101.62 143.498 101.625 143.473 101.622 143.449C101.618 143.425 101.606 143.403 101.587 143.387C101.569 143.371 101.545 143.362 101.52 143.363Z" fill="#263238"/>
<path d="M102.773 143.842C101.156 143.842 99.288 144.403 98.2908 145.724C98.2512 145.778 98.3232 145.832 98.3736 145.807C99.7806 145.061 101.264 144.468 102.798 144.04C102.821 144.033 102.842 144.019 102.855 143.998C102.869 143.978 102.874 143.954 102.871 143.93C102.868 143.906 102.857 143.883 102.839 143.867C102.82 143.851 102.797 143.842 102.773 143.842Z" fill="#263238"/>
<path d="M104.018 144.324C102.406 144.324 100.537 144.882 99.5364 146.207C99.5004 146.257 99.5724 146.311 99.6192 146.286C101.028 145.542 102.513 144.951 104.047 144.522C104.071 144.516 104.091 144.501 104.105 144.48C104.118 144.459 104.124 144.435 104.12 144.41C104.117 144.386 104.104 144.364 104.086 144.348C104.067 144.332 104.043 144.323 104.018 144.324Z" fill="#263238"/>
<path d="M105.268 144.806C103.651 144.788 101.783 145.364 100.786 146.689C100.746 146.74 100.822 146.794 100.868 146.768C102.277 146.024 103.762 145.433 105.296 145.004C105.32 144.998 105.341 144.983 105.354 144.962C105.368 144.942 105.373 144.917 105.37 144.893C105.366 144.868 105.354 144.846 105.335 144.83C105.316 144.814 105.292 144.806 105.268 144.806Z" fill="#263238"/>
<path d="M87.3396 146.614C85.5396 146.614 85.5396 149.44 87.3396 149.429C89.1396 149.418 89.154 146.603 87.3396 146.614Z" fill="#263238"/>
<path d="M103.252 139.05C102.434 138.373 101.405 139.05 100.904 139.745C100.071 140.973 99.5749 142.398 99.4644 143.878C99.4644 143.91 99.4896 143.924 99.5148 143.924C99.5212 143.955 99.5348 143.983 99.5545 144.008C99.5742 144.032 99.5994 144.051 99.628 144.063C99.6565 144.075 99.6877 144.081 99.7187 144.078C99.7498 144.076 99.7798 144.067 99.8064 144.05C100.951 143.255 102.276 142.542 103.144 141.415C103.637 140.76 104.04 139.68 103.252 139.05ZM101.286 142.484C100.732 142.891 100.159 143.269 99.6192 143.698C99.9072 142.891 100.156 142.078 100.523 141.3C100.692 140.927 100.887 140.566 101.106 140.22C101.466 139.684 103.036 138.33 103.201 140.083C103.295 141.044 101.945 142.002 101.286 142.484Z" fill="#263238"/>
<path d="M95.4468 144.49C96.8508 144.698 98.3016 144.295 99.6804 144.076C99.7103 144.068 99.738 144.053 99.7613 144.033C99.7845 144.012 99.8026 143.987 99.8142 143.958C99.8257 143.929 99.8304 143.898 99.8278 143.867C99.8252 143.837 99.8154 143.807 99.7992 143.78C99.8044 143.776 99.8087 143.771 99.8116 143.765C99.8145 143.759 99.816 143.753 99.816 143.746C99.816 143.74 99.8145 143.733 99.8116 143.727C99.8087 143.721 99.8044 143.716 99.7992 143.712C98.6913 142.724 97.343 142.045 95.8896 141.743C95.04 141.581 93.8376 141.815 93.7296 142.87C93.6 143.863 94.626 144.36 95.4468 144.49ZM94.4676 143.575C93.3876 142.193 95.4504 142.074 96.0696 142.218C96.4713 142.319 96.8658 142.446 97.2504 142.6C98.0378 142.926 98.808 143.293 99.558 143.698C98.874 143.766 98.2008 143.888 97.5204 143.982C96.7068 144.09 95.0724 144.335 94.4676 143.575Z" fill="#263238"/>
<path d="M58.7952 68.112C58.7952 68.112 77.4684 99.8784 77.9688 102.11C78.7356 105.538 82.8 139.381 82.8 139.381L102.24 139.021C102.24 139.021 98.892 109.181 95.7204 99.3492C93.438 92.268 76.9572 68.7816 76.9572 68.7816L58.7952 68.112Z" fill="#37474F"/>
<path d="M100.472 136.055C97.6824 136.033 87.7932 135.922 84.078 136.267C84.0492 136.267 84.0528 136.318 84.078 136.321C85.356 136.505 97.6788 136.22 100.469 136.13C100.475 136.133 100.481 136.133 100.487 136.132C100.493 136.132 100.499 136.13 100.504 136.126C100.509 136.123 100.514 136.118 100.517 136.113C100.52 136.107 100.522 136.101 100.522 136.095C100.522 136.089 100.521 136.083 100.518 136.077C100.516 136.071 100.512 136.066 100.507 136.062C100.502 136.059 100.497 136.056 100.491 136.054C100.485 136.053 100.478 136.053 100.472 136.055Z" fill="#263238"/>
<path d="M61.9812 71.028C63.2052 72.9468 64.5012 74.826 65.7468 76.7304C66.9924 78.6348 68.2452 80.5392 69.48 82.44C71.9424 86.28 74.3424 90.1452 76.68 94.0356C77.8208 95.8389 78.7968 97.7414 79.596 99.72C80.3255 101.699 80.8738 103.74 81.234 105.818C81.6156 107.903 81.8676 110.009 82.1016 112.115C82.3416 114.354 82.5924 116.594 82.854 118.836C83.3652 123.422 83.8776 128.009 84.3912 132.595C84.4524 133.157 84.5136 133.718 84.5712 134.284C84.5712 134.366 84.4308 134.381 84.42 134.284C83.8476 129.73 83.3724 125.158 82.854 120.604C82.5948 118.331 82.3368 116.059 82.08 113.789C81.8388 111.676 81.6084 109.559 81.2808 107.46C80.9802 105.388 80.5229 103.342 79.9128 101.34C79.2406 99.2665 78.3399 97.2743 77.2272 95.4C74.9772 91.5156 72.594 87.6996 70.2108 83.88C67.8276 80.0604 65.3796 76.2084 62.8668 72.4356C62.5572 71.9712 62.244 71.5068 61.92 71.0496C61.8948 71.0244 61.9596 70.992 61.9812 71.028Z" fill="#263238"/>
<path d="M64.9152 153.104C64.0296 153.05 41.1552 143.784 40.5216 142.906C40.4934 142.854 40.4809 142.795 40.4856 142.736C40.4856 141.948 42.0732 139.198 43.398 135.583C43.4808 135.353 44.0712 134.28 44.8884 132.836C47.16 128.88 51.12 122.065 51.12 122.065L66.0708 128.005L58.914 138.715L57.8016 141.307C57.8016 141.307 64.818 148.561 65.4084 149.587C65.9988 150.613 65.7972 153.155 64.9152 153.104Z" fill="#EB9481"/>
<path d="M64.9152 153.104C64.0296 153.05 41.1552 143.784 40.5216 142.906C40.4934 142.854 40.4809 142.795 40.4856 142.736C40.4856 141.948 42.0732 139.198 43.398 135.583C43.4808 135.353 44.0712 134.28 44.8884 132.836L58.9284 138.715L57.816 141.307C57.816 141.307 64.8324 148.561 65.4228 149.587C66.0132 150.613 65.7972 153.155 64.9152 153.104Z" fill="white"/>
<path d="M64.9152 153.104C64.0296 153.05 41.1552 143.784 40.5216 142.906C40.2768 142.571 41.2992 139.45 43.4016 135.583L57.8016 141.311C57.8016 141.311 64.818 148.558 65.412 149.591C66.006 150.624 65.7972 153.155 64.9152 153.104Z" fill="#A6A6A6"/>
<path d="M64.9512 152.082C61.2468 150.491 46.1484 144.421 42.3648 143.132C42.3324 143.132 42.3252 143.132 42.3648 143.154C46.0044 144.81 61.1496 150.757 64.9368 152.154C65.0088 152.172 65.0304 152.114 64.9512 152.082Z" fill="#263238"/>
<path d="M64.3032 148.219C63.8924 148.039 63.4487 147.946 63 147.946C62.5513 147.946 62.1076 148.039 61.6968 148.219C60.9582 148.543 60.3728 149.138 60.0624 149.882C60.0624 149.904 60.0948 149.922 60.1056 149.9C60.53 149.21 61.1667 148.676 61.9202 148.378C62.6738 148.08 63.5035 148.035 64.2852 148.248C64.2913 148.246 64.2965 148.242 64.2998 148.237C64.3031 148.232 64.3043 148.225 64.3032 148.219Z" fill="#263238"/>
<path d="M59.1084 142.265C57.6216 141.642 55.6704 141.476 54.2484 142.33C54.1944 142.362 54.2484 142.438 54.2952 142.434C55.8804 142.273 57.4782 142.282 59.0616 142.459C59.086 142.462 59.1105 142.456 59.1305 142.441C59.1506 142.427 59.1648 142.406 59.1705 142.383C59.1762 142.359 59.1731 142.334 59.1617 142.312C59.1502 142.29 59.1313 142.274 59.1084 142.265Z" fill="#263238"/>
<path d="M60.084 143.179C58.5972 142.556 56.646 142.391 55.224 143.244C55.17 143.276 55.224 143.352 55.2708 143.348C56.8559 143.186 58.4539 143.194 60.0372 143.374C60.0616 143.376 60.0861 143.37 60.1061 143.356C60.1261 143.342 60.1404 143.321 60.1461 143.297C60.1518 143.273 60.1487 143.248 60.1373 143.226C60.1258 143.205 60.1069 143.188 60.084 143.179Z" fill="#263238"/>
<path d="M61.0632 144.094C59.5728 143.471 57.6216 143.305 56.2032 144.158C56.1456 144.191 56.2032 144.266 56.2464 144.263C57.8315 144.1 59.4295 144.109 61.0128 144.288C61.0376 144.292 61.0632 144.287 61.0843 144.273C61.1055 144.259 61.1207 144.238 61.127 144.214C61.1334 144.19 61.1303 144.164 61.1185 144.141C61.1067 144.119 61.0869 144.102 61.0632 144.094Z" fill="#263238"/>
<path d="M62.0388 145.008C60.5484 144.385 58.6008 144.22 57.1788 145.069C57.1212 145.105 57.1788 145.181 57.222 145.177C58.8071 145.015 60.4051 145.023 61.9884 145.202C62.0133 145.207 62.0388 145.201 62.0599 145.188C62.0811 145.174 62.0963 145.153 62.1026 145.128C62.109 145.104 62.1059 145.078 62.0941 145.056C62.0823 145.033 62.0626 145.016 62.0388 145.008Z" fill="#263238"/>
<path d="M44.7408 139.957C43.0596 139.288 42.0156 141.905 43.704 142.574C45.3924 143.244 46.44 140.627 44.7408 139.957Z" fill="#263238"/>
<path d="M62.3304 138.917C61.8228 137.984 60.624 138.215 59.8932 138.679C58.6621 139.504 57.6691 140.637 57.0132 141.966C57.0103 141.972 57.0088 141.978 57.0087 141.985C57.0087 141.991 57.0101 141.998 57.0128 142.004C57.0156 142.009 57.0197 142.015 57.0247 142.019C57.0298 142.023 57.0357 142.026 57.042 142.027C57.042 142.146 57.1212 142.286 57.2616 142.258C58.626 141.944 60.12 141.782 61.344 141.062C62.046 140.645 62.8092 139.799 62.3304 138.917ZM59.2164 141.361C58.5504 141.53 57.8808 141.667 57.222 141.862C57.7669 141.205 58.3449 140.577 58.9536 139.979C59.2533 139.693 59.572 139.429 59.9076 139.187C60.4296 138.827 62.4024 138.161 61.8984 139.849C61.6212 140.782 60.012 141.16 59.2164 141.361Z" fill="#263238"/>
<path d="M53.0532 141.03C54.2772 141.75 55.7712 141.919 57.132 142.236C57.2724 142.268 57.366 142.128 57.3552 142.006C57.362 142.005 57.3684 142.002 57.3739 141.998C57.3795 141.995 57.3839 141.989 57.3868 141.983C57.3897 141.977 57.3909 141.97 57.3905 141.963C57.39 141.957 57.3877 141.95 57.384 141.944C56.7292 140.613 55.736 139.477 54.504 138.65C53.784 138.182 52.578 137.948 52.0668 138.877C51.5556 139.806 52.3368 140.609 53.0532 141.03ZM52.4916 139.813C51.9912 138.125 53.9604 138.794 54.4824 139.158C54.8176 139.4 55.1352 139.666 55.4328 139.954C56.0404 140.553 56.6171 141.182 57.1608 141.84C56.502 141.646 55.8324 141.505 55.1664 141.336C54.36 141.12 52.7652 140.76 52.4916 139.813Z" fill="#263238"/>
<path d="M60.0768 138.118L43.3404 131.36C43.3404 131.36 64.0908 100.85 64.242 98.5788C64.3788 96.57 55.2636 79.0668 54.9072 73.9656C54.5184 68.4576 57.168 64.1988 60.084 61.5528L77.346 68.8932C77.346 68.8932 75.5244 71.8056 72.666 73.4292C72.666 73.4292 81.5184 93.6612 81.0144 99.882C80.5104 106.103 60.0768 138.118 60.0768 138.118Z" fill="#37474F"/>
<path d="M60.8184 134.935C58.3992 133.895 59.1084 134.158 56.6748 133.135C55.4868 132.638 47.6748 129.388 46.4724 129.118C46.4472 129.118 46.4292 129.154 46.4544 129.168C47.4948 129.805 55.3716 132.919 56.5704 133.394C59.022 134.359 58.3272 134.057 60.7896 134.993C60.7933 134.998 60.7982 135.002 60.8038 135.004C60.8094 135.007 60.8155 135.008 60.8216 135.007C60.8277 135.007 60.8336 135.004 60.8387 135.001C60.8438 134.998 60.8479 134.993 60.8506 134.987C60.8533 134.982 60.8546 134.976 60.8544 134.97C60.8541 134.963 60.8523 134.958 60.849 134.952C60.8458 134.947 60.8413 134.943 60.8359 134.94C60.8306 134.937 60.8245 134.935 60.8184 134.935Z" fill="#263238"/>
<path d="M75.4956 73.0584C73.6984 73.4773 71.9401 74.0482 70.2396 74.7648C70.2328 74.7672 70.2264 74.7709 70.221 74.7757C70.2156 74.7805 70.2111 74.7863 70.208 74.7928C70.2048 74.7994 70.2029 74.8064 70.2025 74.8137C70.2021 74.8209 70.203 74.8282 70.2054 74.835C70.2078 74.8419 70.2115 74.8482 70.2163 74.8536C70.2211 74.859 70.2269 74.8635 70.2334 74.8667C70.2399 74.8698 70.247 74.8717 70.2543 74.8721C70.2615 74.8726 70.2688 74.8716 70.2756 74.8692C72.0396 74.3544 73.8324 73.872 75.5676 73.2636C75.7008 73.2168 75.6324 73.0296 75.4956 73.0584Z" fill="#263238"/>
<path d="M73.44 72.36C73.2722 72.6584 73.1243 72.9674 72.9972 73.2852C72.8729 73.5264 72.7959 73.7891 72.7704 74.0592C72.7704 74.1132 72.8424 74.124 72.8748 74.0916C73.0554 73.8756 73.2012 73.6327 73.3068 73.3716C73.4544 73.0872 73.6056 72.8064 73.746 72.5148C73.8432 72.3024 73.5516 72.1656 73.44 72.36Z" fill="#263238"/>
<path d="M73.656 70.7256C73.764 70.4592 73.8684 70.1964 73.98 69.93C74.0916 69.6636 74.232 69.39 74.34 69.1092C74.34 69.066 74.4264 69.1092 74.4084 69.1416C74.3004 69.408 74.232 69.6888 74.1492 69.9624C74.0664 70.236 73.9728 70.5096 73.8828 70.7832C73.7136 71.2908 73.5228 71.7948 73.2888 72.288C73.5721 72.3022 73.8549 72.253 74.1168 72.144C74.3843 71.9729 74.5899 71.7205 74.7036 71.424C74.8548 71.1288 74.9952 70.8264 75.15 70.5312C75.3405 70.2121 75.5008 69.8758 75.6288 69.5268C75.6288 69.4836 75.7152 69.5268 75.6972 69.5592C75.4624 70.2971 75.1549 71.0098 74.7792 71.6868C74.6172 71.9496 74.4912 72.2268 74.196 72.3276C73.8764 72.417 73.542 72.4403 73.2132 72.396C73.17 72.396 73.1196 72.396 73.134 72.3312C73.2814 71.7878 73.4556 71.2519 73.656 70.7256Z" fill="#263238"/>
<path d="M72.9216 74.088C73.5372 75.3876 74.0772 76.6836 74.6496 77.9796C75.222 79.2756 75.7296 80.5284 76.2444 81.8172C77.274 84.4164 78.1956 87.066 79.0056 89.7372C79.4052 91.062 79.776 92.3976 80.1072 93.744C80.472 95.0861 80.7391 96.4529 80.9064 97.8336C81.0508 99.2121 80.9286 100.605 80.5464 101.938C80.1494 103.255 79.6399 104.535 79.0236 105.764C78.6456 106.542 78.5196 106.438 78.6996 106.045C79.2144 104.929 80.5644 101.549 80.4672 98.7084C80.3884 97.3486 80.1787 95.9996 79.8408 94.68C79.5264 93.3192 79.1724 91.9692 78.7788 90.63C78.012 87.9876 77.1012 85.3992 76.1652 82.8144C75.6396 81.3744 75.0852 79.9344 74.5452 78.4944C74.0052 77.0544 73.4652 75.7296 72.8604 74.1384C72.8424 74.0736 72.9036 74.0484 72.9216 74.088Z" fill="#263238"/>
<path d="M60.2172 69.7932C60.516 69.6816 60.9372 69.8652 61.2396 69.9156C61.6312 69.9821 62.027 70.0218 62.424 70.0344C62.8168 70.0482 63.2102 70.035 63.6012 69.9948C63.995 69.9846 64.3809 69.8823 64.728 69.696C65.2975 69.2812 65.7856 68.7649 66.168 68.1732C66.6237 67.5685 66.9999 66.908 67.2876 66.2076C67.2876 66.1644 67.3632 66.2076 67.3488 66.2364C67.2228 66.636 67.1292 67.0392 66.9888 67.4316C66.8336 67.8003 66.6482 68.1555 66.4344 68.4936C66.0878 69.174 65.5752 69.7559 64.944 70.1856C64.2492 70.5816 63.3564 70.5456 62.5824 70.5132C62.1335 70.487 61.6871 70.4281 61.2468 70.3368C60.93 70.2684 60.3972 70.218 60.1956 69.9408C60.1861 69.9302 60.1791 69.9176 60.175 69.904C60.1709 69.8904 60.1698 69.876 60.1719 69.862C60.174 69.8479 60.1791 69.8344 60.1869 69.8225C60.1947 69.8107 60.2051 69.8006 60.2172 69.7932Z" fill="#263238"/>
<path d="M48.1176 128.16C50.868 123.994 53.568 119.794 56.2176 115.56C58.8672 111.326 61.4808 107.06 64.0584 102.762C64.674 101.736 65.3832 100.714 65.7792 99.576C66.2112 98.3412 65.9664 97.1424 65.5776 95.9328C64.8434 93.7261 63.9853 91.5627 63.0072 89.4528C62.0424 87.3252 61.002 85.2336 59.9796 83.1348C58.9572 81.036 57.888 78.9624 57.0996 76.7736C56.3796 74.682 56.088 72.5148 56.6496 70.3476C57.2112 68.1804 58.4208 66.2652 59.6844 64.4616C60.0156 63.9864 60.3576 63.5148 60.6924 63.0216C60.7176 62.9856 60.7716 63.0216 60.7464 63.0648C59.3532 64.944 57.996 66.9348 57.1788 69.1416C56.7611 70.2293 56.5275 71.3791 56.4876 72.5436C56.4808 73.7256 56.6643 74.9011 57.0312 76.0248C57.708 78.2136 58.7772 80.2836 59.7744 82.3428C60.7716 84.402 61.8372 86.5332 62.82 88.6536C63.8339 90.7876 64.7351 92.9735 65.52 95.202C65.8548 96.192 66.24 97.2288 66.2112 98.2908C66.186 99.4536 65.6316 100.501 65.0556 101.48C62.5356 105.746 59.9544 109.962 57.3264 114.152C54.6984 118.343 51.9948 122.533 49.2588 126.68L48.222 128.246C48.168 128.311 48.0744 128.236 48.1176 128.16Z" fill="#263238"/>
<path d="M78.3036 49.4892C79.8624 52.9092 87.7356 57.6216 91.422 58.1292C94.0716 58.4892 102.128 58.6188 104.89 58.1976C108.13 57.7008 105.653 48.9708 103.741 49.1976C98.4852 49.8096 94.0212 50.4936 92.6172 50.4936C90.9036 50.4936 81.6336 47.52 80.5176 47.0988C77.7816 46.08 77.4216 47.5488 78.3036 49.4892Z" fill="#EB9481"/>
<path d="M78.354 50.4C80.3268 53.3196 86.8824 58.0932 86.8824 58.0932L87.7932 56.0772L90.8064 49.41C90.8064 49.41 84.7836 47.52 80.82 46.656C80.3536 46.5499 79.8792 46.4824 79.4016 46.4544C76.8708 46.3176 76.6512 47.88 78.354 50.4Z" fill="#F4B667"/>
<path d="M78.354 50.4C80.3268 53.3196 86.8824 58.0932 86.8824 58.0932L87.7932 56.0772C85.3488 53.2368 81.5724 48.9348 79.4016 46.4616C76.8708 46.3176 76.6512 47.88 78.354 50.4Z" fill="#263238"/>
<path d="M85.7016 56.7396C86.202 55.512 88.4268 50.5692 88.9812 49.5396C89.0172 49.4676 89.0748 49.4748 89.0424 49.5396C88.0773 51.9977 86.9789 54.4012 85.752 56.7396C85.7376 56.7828 85.68 56.7684 85.7016 56.7396Z" fill="#263238"/>
<path d="M102.776 49.2876C105.973 48.87 109.93 48.1536 113.281 49.5756C113.658 49.7233 113.973 49.9934 114.178 50.3424C115.69 50.9544 115.855 51.8508 115.855 51.8508C117.09 52.8516 117.133 53.7948 117.133 53.7948C117.133 53.7948 118.904 54.5148 118.634 55.674C118.339 56.9556 115.913 55.674 114.149 55.7784C110.099 56.0304 104.429 57.5172 103.259 57.7044L102.776 49.2876Z" fill="#EB9481"/>
<path d="M109.721 53.0604C110.905 52.9794 112.093 52.9794 113.278 53.0604C114.567 53.2222 115.843 53.481 117.094 53.8344C117.102 53.8373 117.111 53.8368 117.118 53.8331C117.126 53.8294 117.132 53.8227 117.135 53.8146C117.138 53.8065 117.137 53.7976 117.134 53.7898C117.13 53.7821 117.123 53.7761 117.115 53.7732C114.765 52.8513 112.208 52.5923 109.721 53.0244C109.663 53.0172 109.663 53.064 109.721 53.0604Z" fill="#263238"/>
<path d="M108.968 49.32C110.945 49.4208 112.18 49.7376 114.167 50.3352V50.3136C111.978 49.3992 111.082 49.3128 108.958 49.2336C108.889 49.2624 108.893 49.32 108.968 49.32Z" fill="#263238"/>
<path d="M109.289 56.3904C108.774 56.6316 108.9 56.9016 109.883 57.1284C110.866 57.3552 114.952 57.4236 114.808 58.8492C114.664 60.2748 108.9 60.0948 107.291 59.5908C105.682 59.0868 103.259 57.7044 103.259 57.7044C104.4 57.5136 107.078 56.79 109.289 56.3904Z" fill="#EB9481"/>
<path d="M82.584 54.9396C82.5588 55.5552 82.5012 56.1816 82.4148 56.8044C82.4148 56.7792 82.4148 56.7576 82.44 56.736C82.5588 56.412 82.6776 56.0808 82.8216 55.7676C82.8216 55.7676 82.8576 55.7676 82.854 55.7676C82.7848 56.1108 82.6811 56.4461 82.5444 56.7684C82.4796 56.9232 82.4184 57.0744 82.35 57.2256C82.3068 57.5028 82.2564 57.7764 82.2024 58.05C82.0944 58.5648 81.6084 60.7536 81.4824 61.1244C81.4608 61.2 81.3672 61.182 81.3744 61.0956C81.3996 60.6924 81.8064 58.4136 81.8892 57.8952C82.05 56.8943 82.2651 55.9028 82.5336 54.9252C82.5516 54.9072 82.5876 54.9216 82.584 54.9396Z" fill="#263238"/>
<path d="M78.84 71.3088C77.8788 71.802 76.6404 72.5688 71.0604 71.4708C70.7004 71.3988 70.362 71.3124 70.0092 71.208C64.7784 69.6384 58.4892 63.486 58.1472 63.0504C58.1472 63.0504 66.4596 49.5756 77.0904 45.3384C78.4044 44.8164 80.5788 45.8244 81.7704 47.0808C82.1988 47.5308 83.1312 50.8392 82.7748 53.5176C82.4184 56.196 79.7976 70.8156 78.84 71.3088Z" fill="#F4B667"/>
<path d="M78.0912 53.3952C78.1314 53.9646 78.0516 54.5361 77.8572 55.0728C77.8116 54.5032 77.8914 53.9306 78.0912 53.3952Z" fill="white"/>
<path d="M74.466 62.5716C74.4889 62.855 74.4793 63.14 74.4372 63.4212C74.4026 63.7045 74.3337 63.9825 74.232 64.2492C74.2072 63.9647 74.2169 63.6782 74.2608 63.396C74.2976 63.1143 74.3665 62.8377 74.466 62.5716Z" fill="white"/>
<path d="M68.3064 55.6344C68.3469 56.205 68.2672 56.7778 68.0724 57.3156C68.0272 56.7449 68.107 56.1711 68.3064 55.6344Z" fill="white"/>
<path d="M80.4636 62.1036C80.4866 62.3881 80.4769 62.6744 80.4348 62.9568C80.4001 63.2401 80.3312 63.5181 80.2296 63.7848C80.2048 63.5003 80.2145 63.2138 80.2584 62.9316C80.2948 62.6486 80.3636 62.3708 80.4636 62.1036Z" fill="white"/>
<path d="M72.5544 54.4464C72.8376 54.4223 73.1227 54.4308 73.404 54.4716C73.6874 54.5076 73.9654 54.5777 74.232 54.6804C73.6625 54.7213 73.0909 54.6416 72.5544 54.4464Z" fill="white"/>
<path d="M65.5632 61.074C66.1326 61.0339 66.7041 61.1136 67.2408 61.308C66.6712 61.3537 66.0986 61.2738 65.5632 61.074Z" fill="white"/>
<path d="M73.8 68.2488C74.3694 68.2079 74.9411 68.2876 75.4776 68.4828C74.908 68.5277 74.3355 68.4479 73.8 68.2488Z" fill="white"/>
<path d="M63.4068 65.6424C63.9762 65.6023 64.5477 65.682 65.0844 65.8764C64.5148 65.9214 63.9423 65.8415 63.4068 65.6424Z" fill="white"/>
<path d="M78.0372 46.944C78.6066 46.9039 79.1781 46.9836 79.7148 47.178C79.1454 47.2182 78.5739 47.1384 78.0372 46.944Z" fill="white"/>
<path d="M76.0032 49.2408C75.8212 49.4596 75.6133 49.6554 75.384 49.824C75.1609 49.9965 74.9195 50.1438 74.664 50.2632C74.8448 50.0458 75.0502 49.8501 75.276 49.68C75.5012 49.5068 75.7451 49.3595 76.0032 49.2408Z" fill="white"/>
<path d="M64.9188 55.7676C64.7346 55.9845 64.5255 56.1791 64.296 56.3472C64.0752 56.523 63.8333 56.6705 63.576 56.7864C63.7612 56.5705 63.9701 56.3761 64.1988 56.2068C64.4201 56.0318 64.6619 55.8843 64.9188 55.7676Z" fill="white"/>
<path d="M78.7608 58.7124C78.5766 58.9304 78.3676 59.1261 78.138 59.2956C77.9167 59.4706 77.6749 59.6181 77.418 59.7348C77.6022 59.5168 77.8112 59.3211 78.0408 59.1516C78.2633 58.9783 78.5049 58.831 78.7608 58.7124Z" fill="white"/>
<path d="M69.7968 64.3572C69.6127 64.5752 69.4036 64.7709 69.174 64.9404C68.9523 65.1149 68.7106 65.2623 68.454 65.3796C68.6382 65.1616 68.8472 64.9658 69.0768 64.7964C69.2994 64.6231 69.5409 64.4758 69.7968 64.3572Z" fill="white"/>
<path d="M82.1952 51.0012C82.011 51.2192 81.802 51.415 81.5724 51.5844C81.3493 51.7569 81.1078 51.9042 80.8524 52.0236C81.0365 51.8056 81.2456 51.6099 81.4752 51.4404C81.6969 51.2659 81.9386 51.1185 82.1952 51.0012Z" fill="white"/>
<path d="M82.008 57.5424C81.79 57.3582 81.5943 57.1492 81.4248 56.9196C81.2496 56.6984 81.1021 56.4566 80.9856 56.1996C81.2044 56.3816 81.4002 56.5895 81.5688 56.8188C81.7408 57.0435 81.888 57.2861 82.008 57.5424Z" fill="white"/>
<path d="M62.028 62.0496C61.81 61.8654 61.6142 61.6564 61.4448 61.4268C61.2715 61.2042 61.1242 60.9627 61.0056 60.7068C61.2236 60.8909 61.4193 61.1 61.5888 61.3296C61.7633 61.5513 61.9107 61.793 62.028 62.0496Z" fill="white"/>
<path d="M79.578 67.41C79.3592 67.228 79.1634 67.0201 78.9948 66.7908C78.8223 66.5677 78.675 66.3263 78.5556 66.0708C78.7736 66.255 78.9693 66.464 79.1388 66.6936C79.3125 66.9145 79.4599 67.155 79.578 67.41Z" fill="white"/>
<path d="M70.7832 52.128C70.5653 51.9451 70.3695 51.7373 70.2 51.5088C70.0282 51.2852 69.881 51.0439 69.7608 50.7888C69.9796 50.9708 70.1754 51.1787 70.344 51.408C70.5158 51.6316 70.663 51.873 70.7832 52.128Z" fill="white"/>
<path d="M70.938 70.4628C70.72 70.2786 70.5242 70.0696 70.3548 69.84C70.1821 69.6171 70.0348 69.3756 69.9156 69.12C70.1344 69.302 70.3302 69.5099 70.4988 69.7392C70.672 69.9631 70.8194 70.2058 70.938 70.4628Z" fill="white"/>
<path d="M72.432 59.6484C72.2161 59.4632 72.0216 59.2543 71.8524 59.0256C71.6766 58.8048 71.5291 58.5629 71.4132 58.3056C71.6301 58.4898 71.8246 58.6989 71.9928 58.9284C72.1678 59.1497 72.3153 59.3915 72.432 59.6484Z" fill="white"/>
<path d="M79.8228 50.67C78.4656 50.418 77.1912 47.6136 77.0292 45.7272C77.0292 45.5976 77.6628 44.5716 78.3864 43.2864C78.8256 42.5052 79.29 41.6232 79.6608 40.788C79.7364 40.6188 80.1792 41.1912 80.1792 41.1912L81.144 41.9112L84.33 44.3556C83.5713 45.266 82.9269 46.2658 82.4112 47.3328C82.3603 47.4484 82.3217 47.5691 82.296 47.6928C82.2946 47.7132 82.2946 47.7336 82.296 47.754C82.098 48.4668 81.1296 50.9112 79.8228 50.67Z" fill="#EB9481"/>
<path d="M82.296 47.7108C82.2946 47.7312 82.2946 47.7516 82.296 47.772C82.1069 47.7165 81.9226 47.6455 81.7452 47.5596C78.2568 45.9252 79.794 41.2524 79.794 41.2524L81.162 41.9292L84.348 44.3736C83.5893 45.284 82.9449 46.2838 82.4292 47.3508C82.3721 47.4657 82.3275 47.5864 82.296 47.7108Z" fill="#263238"/>
<path d="M87.9912 34.4088C87.9912 34.4088 89.586 35.4204 89.5932 37.2204C89.6004 39.0204 88.8732 40.7808 88.722 40.8456C88.5708 40.9104 87.9912 34.4088 87.9912 34.4088Z" fill="#263238"/>
<path d="M80.0784 35.3448C79.1208 37.2348 79.1712 43.1928 80.3664 44.7264C82.1016 46.9512 85.4424 47.718 87.462 45.5184C89.4168 43.3872 89.2152 35.6256 87.822 34.1784C85.7952 32.04 81.4968 32.5476 80.0784 35.3448Z" fill="#EB9481"/>
<path d="M85.1616 40.1148C85.1616 40.1148 85.1292 40.1364 85.1328 40.1508C85.1544 40.5576 85.1112 41.0256 84.7476 41.1696C84.7476 41.1696 84.7476 41.1948 84.7476 41.1912C85.1976 41.1192 85.248 40.4964 85.1616 40.1148Z" fill="#263238"/>
<path d="M84.7908 39.7008C84.1356 39.6648 84.114 40.9752 84.7224 41.0076C85.3308 41.04 85.338 39.7296 84.7908 39.7008Z" fill="#263238"/>
<path d="M87.3828 40.1004C87.3828 40.1004 87.4152 40.1004 87.4152 40.1364C87.3936 40.5432 87.4404 41.0112 87.8076 41.1516C87.8076 41.1516 87.8076 41.1768 87.8076 41.1732C87.354 41.1048 87.3 40.482 87.3828 40.1004Z" fill="#263238"/>
<path d="M87.7536 39.6828C88.4052 39.6432 88.4376 40.9536 87.8328 40.9896C87.228 41.0256 87.2064 39.7152 87.7536 39.6828Z" fill="#263238"/>
<path d="M84.3804 38.7036C84.5524 38.6546 84.7219 38.597 84.888 38.5308C85.0771 38.4966 85.2494 38.4003 85.3776 38.2572C85.4087 38.2048 85.4217 38.1436 85.4146 38.0831C85.4074 38.0225 85.3805 37.9661 85.338 37.9224C85.2406 37.8483 85.1252 37.8016 85.0037 37.787C84.8822 37.7725 84.759 37.7906 84.6468 37.8396C84.4039 37.9046 84.1936 38.0572 84.0564 38.268C84.029 38.3181 84.0166 38.3751 84.0206 38.4321C84.0245 38.4891 84.0448 38.5437 84.0789 38.5896C84.113 38.6354 84.1595 38.6705 84.213 38.6907C84.2664 38.7109 84.3245 38.7154 84.3804 38.7036Z" fill="#263238"/>
<path d="M88.2 39.2832C88.0249 39.2441 87.8518 39.196 87.6816 39.1392C87.4919 39.1141 87.3159 39.0267 87.1812 38.8908C87.1465 38.8407 87.1298 38.7804 87.1337 38.7196C87.1376 38.6589 87.162 38.6012 87.2028 38.556C87.2956 38.4766 87.4081 38.4237 87.5285 38.4028C87.6489 38.3819 87.7726 38.3938 87.8868 38.4372C88.133 38.4882 88.3513 38.6295 88.4988 38.8332C88.5296 38.8814 88.5458 38.9376 88.5453 38.9948C88.5448 39.052 88.5277 39.1079 88.496 39.1556C88.4644 39.2033 88.4195 39.2407 88.367 39.2634C88.3144 39.286 88.2564 39.2929 88.2 39.2832Z" fill="#263238"/>
<path d="M84.24 43.9632C84.3372 44.0604 84.4308 44.19 84.5784 44.2044C84.7297 44.2043 84.8794 44.1724 85.0176 44.1108C85.0176 44.1108 85.0428 44.1108 85.0176 44.1324C84.9586 44.2115 84.8792 44.2731 84.7878 44.3105C84.6965 44.3479 84.5967 44.3598 84.4992 44.3448C84.4169 44.3224 84.3431 44.2763 84.2868 44.2123C84.2305 44.1483 84.1942 44.0692 84.1824 43.9848C84.1795 43.9772 84.1798 43.9687 84.1832 43.9613C84.1866 43.9538 84.1927 43.9481 84.2004 43.9452C84.208 43.9423 84.2165 43.9426 84.2239 43.946C84.2313 43.9494 84.2371 43.9556 84.24 43.9632Z" fill="#263238"/>
<path d="M86.5944 42.228C86.5944 42.228 86.6124 42.8328 86.5944 43.1172C86.0412 43.0585 85.4826 43.0779 84.9348 43.1748C84.8052 43.2036 84.8196 43.0992 84.9672 43.0308C85.4084 42.8292 85.8999 42.764 86.3784 42.8436C86.4072 42.768 86.3316 41.9076 86.3784 41.9112C86.5962 41.954 86.807 42.0267 87.0048 42.1272C87.0048 40.86 86.8032 39.6072 86.8212 38.34C86.8212 38.2968 86.8896 38.2896 86.8968 38.34C87.1526 39.6806 87.2732 41.0434 87.2568 42.408C87.2604 42.5628 86.7024 42.2856 86.5944 42.228Z" fill="#263238"/>
<path d="M85.7844 42.9012C85.6409 43.2786 85.3746 43.5969 85.0284 43.8048C84.4848 44.0244 84.3084 43.5312 84.8556 43.0848C85.1426 42.9397 85.4638 42.8762 85.7844 42.9012Z" fill="#263238"/>
<path d="M85.2192 43.6932C85.1617 43.74 85.0973 43.7777 85.0284 43.8048C84.528 44.0064 84.33 43.6068 84.7332 43.2036C85.0068 43.2252 85.32 43.326 85.2192 43.6932Z" fill="#FF99BA"/>
<path d="M79.8048 40.4388C80.4636 40.6404 81.2196 38.6604 81.4356 37.9188C81.6228 37.2492 81.8388 35.1216 81.8712 34.974C81.9036 34.8264 84.7512 36.8568 86.4 36.3744C88.0488 35.892 89.1684 34.398 89.1936 33.7032C89.2188 33.0084 87.156 31.2444 85.374 31.1544C83.592 31.0644 81.1764 33.3144 81.1764 33.3144C81.4682 32.9833 81.733 32.6294 81.9684 32.256C81.9396 32.1768 80.7876 32.6376 80.5752 33.4584C80.5752 33.4584 80.8056 32.4252 80.7192 32.4072C80.6328 32.3892 79.7364 33.2712 79.938 33.9408C79.938 33.9408 78.9012 34.8372 78.8076 35.82C78.714 36.8028 79.0308 40.2012 79.8048 40.4388Z" fill="#263238"/>
<path d="M87.5808 36C87.0904 36.2659 86.5623 36.4553 86.0148 36.5616C85.4002 36.6164 84.7816 36.5175 84.2148 36.2736C83.6438 36.053 83.1134 35.7392 82.6452 35.3448C82.2312 35.0064 81.8604 34.5924 81.4176 34.29C81.306 34.2108 81.18 34.3728 81.2484 34.4736C81.9871 35.5171 83.0425 36.2947 84.258 36.6912C84.8225 36.8753 85.4251 36.9097 86.0069 36.7911C86.5888 36.6724 87.1298 36.4048 87.5772 36.0144C87.5772 36.0144 87.588 36 87.5808 36Z" fill="#263238"/>
<path d="M80.4924 40.2624C80.4924 40.2624 79.47 38.1888 78.5484 38.5236C77.6268 38.8584 78.1884 41.7276 79.1352 42.2532C79.2512 42.3282 79.3811 42.3791 79.5172 42.4027C79.6533 42.4263 79.7928 42.4221 79.9272 42.3905C80.0617 42.3589 80.1884 42.3005 80.2997 42.2188C80.4111 42.137 80.5048 42.0336 80.5752 41.9148L80.4924 40.2624Z" fill="#EB9481"/>
<path d="M78.732 39.3408C78.732 39.3408 78.7104 39.3408 78.732 39.3696C79.3872 39.7584 79.6536 40.4496 79.812 41.1696C79.7822 41.0934 79.7361 41.0246 79.6771 40.9679C79.6181 40.9112 79.5474 40.868 79.47 40.8413C79.3927 40.8146 79.3104 40.805 79.229 40.8132C79.1476 40.8214 79.0689 40.8472 78.9984 40.8888C78.9768 40.8888 78.9984 40.9284 78.9984 40.9284C79.1272 40.9084 79.259 40.9288 79.3757 40.9868C79.4924 41.0449 79.5882 41.1376 79.65 41.2524C79.753 41.4447 79.8351 41.6474 79.8948 41.8572C79.9164 41.9256 80.0352 41.9076 80.0244 41.832C80.1792 40.9356 79.6752 39.5784 78.732 39.3408Z" fill="#263238"/>
<path d="M73.7424 49.5216C73.0224 53.6004 77.4432 67.3416 80.2764 69.9084C84.492 73.7244 92.286 76.2336 95.112 77.0508C96.3432 77.4108 99.7488 68.7456 98.5032 68.1732C95.8356 66.96 87.5484 64.368 86.76 63.72C85.9716 63.072 81.2196 56.2068 79.1028 52.254C76.2696 46.9332 74.0988 47.4588 73.7424 49.5216Z" fill="#EB9481"/>
<path d="M96.4044 67.41C96.4044 67.41 100.084 68.3496 102.456 69.0732C103.781 69.48 105.991 70.3764 106.83 71.118C108.083 72.2304 112.612 77.6736 111.316 78.8004C110.142 79.8228 106.844 74.6496 106.844 74.6496C106.844 74.6496 110.632 79.5744 109.004 80.5428C107.377 81.5112 104.4 75.1716 104.4 75.1716C104.4 75.1716 108.176 80.3196 106.33 81.0504C104.933 81.6012 101.938 76.0104 101.938 76.0104C101.938 76.0104 105.156 80.4564 103.738 81.0864C102.175 81.7848 99.09 76.7952 99.09 76.7952C95.2308 77.7924 92.97 76.6872 91.4832 75.7152C91.134 75.4776 96.4044 67.41 96.4044 67.41Z" fill="#EB9481"/>
<path d="M105.642 72.8604C106.11 73.422 106.585 73.9908 106.999 74.592C107.413 75.1932 107.806 75.8124 108.162 76.4496C108.645 77.2738 109.031 78.1507 109.314 79.0632C108.695 77.4792 107.244 75.3012 106.83 74.7C106.416 74.0988 106.031 73.476 105.62 72.8748C105.61 72.8604 105.631 72.846 105.642 72.8604Z" fill="#263238"/>
<path d="M103.442 74.3184C104.242 74.952 105.916 77.3064 106.56 78.8868C106.589 78.9516 106.56 78.948 106.513 78.8868C106.009 78.1056 103.964 75.0816 103.424 74.3292C103.414 74.3184 103.432 74.3076 103.442 74.3184Z" fill="#263238"/>
<path d="M101.329 75.24C102.322 76.2816 103.107 77.5036 103.64 78.84C103.666 78.9048 103.615 78.894 103.576 78.84C102.83 77.6268 102.254 76.68 101.29 75.2724C101.275 75.24 101.308 75.2076 101.329 75.24Z" fill="#263238"/>
<path d="M77.76 49.8204C74.4732 45.1728 72.5076 46.8936 73.1664 51.9408C73.7856 56.6604 75.438 62.2836 75.438 62.2836L83.718 58.266C83.718 58.266 79.8516 52.7976 77.76 49.8204Z" fill="#F4B667"/>
<path d="M79.758 51.6492C79.8671 51.9117 79.9456 52.1859 79.992 52.4664C80.0425 52.7478 80.0607 53.0341 80.046 53.3196C79.938 53.0558 79.8607 52.7804 79.8156 52.4988C79.7621 52.219 79.7427 51.9337 79.758 51.6492Z" fill="white"/>
<path d="M74.8512 54.4752C75.3796 54.2603 75.9481 54.162 76.518 54.1872C76.2554 54.2952 75.9811 54.3725 75.7008 54.4176C75.421 54.471 75.1357 54.4904 74.8512 54.4752Z" fill="white"/>
<path d="M75.0636 47.2464C74.8407 47.7725 74.5081 48.245 74.088 48.6324C74.311 48.1063 74.6435 47.6338 75.0636 47.2464Z" fill="white"/>
<path d="M82.08 56.646C81.9707 56.9093 81.8318 57.1593 81.666 57.3912C81.5045 57.626 81.316 57.8411 81.1044 58.032C81.3273 57.5059 81.6599 57.0334 82.08 56.646Z" fill="white"/>
<path d="M76.32 59.4648C76.0561 59.3568 75.8059 59.2178 75.5748 59.0508C75.3398 58.8895 75.1247 58.701 74.934 58.4892C75.4601 58.7121 75.9326 59.0447 76.32 59.4648Z" fill="white"/>
<path d="M78.84 51.2208C79.2828 51.8292 79.74 52.4232 80.1936 53.0208C80.0784 52.7184 79.9776 52.4124 79.8912 52.1028H79.9128C80.0028 52.3404 80.1072 52.5744 80.1936 52.8228L80.3232 53.1828C80.3344 53.2074 80.344 53.2327 80.352 53.2584C80.712 53.7228 81.072 54.1872 81.4032 54.6624C81.81 55.2312 82.2024 55.8072 82.5984 56.3832C82.9944 56.9592 83.394 57.6756 83.8224 58.2552C83.862 58.3056 83.1024 58.6152 83.0196 58.6548C82.9368 58.6944 82.8936 58.626 82.9728 58.6008C83.052 58.5756 83.6568 58.2048 83.664 58.1976C83.268 57.6144 82.8108 57.078 82.3968 56.5128C81.9828 55.9476 81.5724 55.3824 81.1728 54.81C80.3628 53.6436 79.6212 52.434 78.8148 51.264L78.84 51.2208Z" fill="#263238"/>
<path d="M73.3608 55.2816C73.4868 55.5264 73.6236 55.7676 73.7208 56.0196L73.8576 56.3328C73.6668 55.4364 73.4976 54.5328 73.2996 53.6364C73.6812 55.0764 74.0664 56.5488 74.4192 58.0104C74.754 59.4072 75.1608 60.8184 75.3552 62.244C75.6062 62.1339 75.8664 62.046 76.1328 61.9812C75.8655 62.1542 75.5777 62.2933 75.276 62.3952C74.842 60.9455 74.4816 59.4749 74.196 57.9888C74.106 57.5856 74.0232 57.1824 73.9368 56.7792C73.8432 56.5344 73.7316 56.3004 73.62 56.0592C73.5084 55.818 73.4076 55.548 73.3068 55.2924C73.3284 55.278 73.3536 55.2636 73.3608 55.2816Z" fill="#263238"/>
<path d="M75.5604 60.894C76.7124 60.246 81.5256 57.7548 82.602 57.294C82.6776 57.2616 82.7172 57.294 82.6416 57.3444C80.3569 58.672 78.0014 59.8738 75.5856 60.9444C75.5568 60.9516 75.528 60.912 75.5604 60.894Z" fill="#263238"/>
<path d="M207.475 155.538H97.7904L113.648 65.592H223.333L207.475 155.538Z" fill="#F4B667"/>
<path d="M151.189 56.2752H115.294L113.648 65.592H152.064L151.189 56.2752Z" fill="#F4B667"/>
<g opacity="0.1">
<path d="M207.475 155.538H97.7904L113.648 65.592H223.333L207.475 155.538Z" fill="black"/>
<path d="M151.189 56.2752H115.294L113.648 65.592H152.064L151.189 56.2752Z" fill="black"/>
</g>
<path d="M111.42 60.0768C111.18 59.0466 111.18 57.975 111.42 56.9448C111.66 57.975 111.66 59.0466 111.42 60.0768Z" fill="#263238"/>
<path d="M108.23 60.9984C107.864 60.6183 107.548 60.1924 107.291 59.7312C107.021 59.2796 106.809 58.7958 106.661 58.2912C107.028 58.6691 107.344 59.094 107.6 59.5548C107.87 60.0079 108.081 60.4929 108.23 60.9984Z" fill="#263238"/>
<path d="M105.926 63.3924C104.915 63.0848 103.987 62.5491 103.216 61.8264C103.72 61.9731 104.204 62.1836 104.656 62.4528C105.117 62.7117 105.544 63.0273 105.926 63.3924Z" fill="#263238"/>
<path d="M105.12 66.618C104.09 66.858 103.018 66.858 101.988 66.618C103.018 66.378 104.09 66.378 105.12 66.618Z" fill="#263238"/>
<path d="M106.056 69.8076C105.674 70.1723 105.249 70.4879 104.789 70.7472C104.337 71.0164 103.854 71.2269 103.349 71.3736C103.729 71.0071 104.155 70.6912 104.616 70.434C105.067 70.1635 105.551 69.9529 106.056 69.8076Z" fill="#263238"/>
<path d="M108.446 72.108C108.14 73.1211 107.604 74.0499 106.88 74.8224C107.027 74.3171 107.239 73.833 107.51 73.3824C107.767 72.9195 108.082 72.4913 108.446 72.108Z" fill="#263238"/>
<path d="M111.672 72.9036C111.798 73.416 111.858 73.9421 111.852 74.4696C111.86 74.9972 111.799 75.5236 111.672 76.0356C111.543 75.5239 111.482 74.9973 111.492 74.4696C111.486 73.9421 111.546 73.416 111.672 72.9036Z" fill="#263238"/>
<path d="M114.862 72C115.228 72.3801 115.544 72.806 115.801 73.2672C116.072 73.7179 116.282 74.202 116.428 74.7072C115.704 73.9348 115.168 73.0059 114.862 71.9928V72Z" fill="#263238"/>
<path d="M117.162 69.588C117.667 69.7333 118.151 69.9439 118.602 70.2144C119.063 70.4716 119.489 70.7875 119.869 71.154C119.364 71.0087 118.88 70.7981 118.429 70.5276C117.968 70.2704 117.542 69.9546 117.162 69.588Z" fill="#263238"/>
<path d="M117.958 66.3624C118.989 66.1224 120.062 66.1224 121.093 66.3624C120.062 66.6023 118.989 66.6023 117.958 66.3624Z" fill="#263238"/>
<path d="M117.036 63.1728C117.417 62.8085 117.843 62.4939 118.303 62.2368C118.753 61.9637 119.237 61.7519 119.743 61.6068C118.971 62.3305 118.042 62.8663 117.029 63.1728H117.036Z" fill="#263238"/>
<path d="M114.642 60.8724C114.79 60.3683 115.001 59.8846 115.268 59.4324C115.526 58.9713 115.841 58.5453 116.208 58.1652C116.063 58.6704 115.852 59.1545 115.582 59.6052C115.324 60.0664 115.009 60.4923 114.642 60.8724Z" fill="#263238"/>
<path d="M207.313 155.538H97.3944L81.7848 68.8572H191.707L207.313 155.538Z" fill="#F4B667"/>
<path d="M119.876 121.846C122.399 121.846 124.445 119.8 124.445 117.277C124.445 114.754 122.399 112.709 119.876 112.709C117.353 112.709 115.308 114.754 115.308 117.277C115.308 119.8 117.353 121.846 119.876 121.846Z" fill="#263238"/>
<path d="M155.992 121.846C158.515 121.846 160.56 119.8 160.56 117.277C160.56 114.754 158.515 112.709 155.992 112.709C153.469 112.709 151.423 114.754 151.423 117.277C151.423 119.8 153.469 121.846 155.992 121.846Z" fill="#263238"/>
<path d="M144.497 122.576L144.245 122.098C144.223 122.054 141.862 117.691 137.113 117.691C132.793 117.691 131.713 121.799 131.684 121.975L131.555 122.497L130.507 122.245L130.633 121.72C130.633 121.669 131.922 116.611 137.113 116.611C142.513 116.611 145.094 121.392 145.202 121.597L145.454 122.072L144.497 122.576Z" fill="#263238"/>
<path d="M200.056 116.928L199.98 116.568C200.214 116.518 200.444 116.464 200.675 116.402L200.765 116.762C200.52 116.824 200.293 116.878 200.056 116.928Z" fill="#263238"/>
<path d="M202.158 116.348L202.043 116.01C202.493 115.855 202.943 115.686 203.378 115.502L203.519 115.834C203.076 116.021 202.619 116.194 202.158 116.348ZM204.84 115.2L204.678 114.883C205.099 114.664 205.52 114.426 205.92 114.163L206.107 114.469C205.697 114.754 205.268 114.995 204.84 115.2ZM207.317 113.677L207.104 113.386C207.493 113.101 207.868 112.802 208.22 112.496L208.458 112.766C208.08 113.094 207.72 113.4 207.313 113.692L207.317 113.677ZM209.513 111.762L209.25 111.514C209.581 111.154 209.894 110.794 210.182 110.434L210.467 110.653C210.168 111.049 209.848 111.42 209.52 111.776L209.513 111.762ZM211.295 109.458L210.989 109.267C211.238 108.865 211.459 108.446 211.651 108.014L211.982 108.162C211.779 108.612 211.548 109.05 211.291 109.472L211.295 109.458ZM212.486 106.787L212.126 106.686C212.258 106.234 212.355 105.773 212.418 105.307L212.778 105.354C212.718 105.843 212.62 106.327 212.483 106.801L212.486 106.787ZM212.886 103.907H212.526V103.802C212.526 103.367 212.501 102.924 212.458 102.488L212.818 102.452C212.865 102.901 212.889 103.351 212.89 103.802L212.886 103.907ZM212.238 101.088C212.141 100.624 212.021 100.165 211.878 99.7128L212.238 99.6048C212.386 100.073 212.512 100.548 212.598 101.012L212.238 101.088ZM211.385 98.3772C211.212 97.9524 211.025 97.5168 210.794 97.0776L211.118 96.9156C211.338 97.362 211.54 97.8084 211.716 98.2404L211.385 98.3772ZM210.125 95.8104C209.902 95.418 209.657 95.004 209.405 94.5792L209.711 94.3884C209.974 94.8168 210.222 95.2344 210.431 95.634L210.125 95.8104ZM208.62 93.366C208.357 92.97 208.091 92.5704 207.817 92.1708L208.116 91.9692C208.39 92.3688 208.656 92.7684 208.919 93.1716L208.62 93.366ZM207 90.9828C206.73 90.5868 206.456 90.1872 206.19 89.7912L206.489 89.5896C206.755 89.9856 207.025 90.3852 207.295 90.7776L207 90.9828ZM205.391 88.5852C205.128 88.182 204.872 87.7716 204.62 87.3612L204.926 87.174C205.178 87.5844 205.434 87.9876 205.693 88.3908L205.391 88.5852ZM203.89 86.112C203.645 85.6764 203.418 85.2444 203.213 84.8304L203.537 84.6684C203.738 85.0788 203.965 85.5036 204.203 85.9356L203.89 86.112ZM202.612 83.52C202.421 83.07 202.252 82.6128 202.093 82.1664L202.453 82.0512C202.604 82.4868 202.774 82.9368 202.961 83.3796L202.612 83.52ZM201.676 80.7732C201.557 80.3052 201.452 79.8264 201.373 79.3332L201.733 79.2756C201.812 79.7364 201.91 80.2044 202.028 80.6652L201.676 80.7732ZM201.193 77.8932C201.157 77.4504 201.139 77.004 201.139 76.5576V76.4388H201.499V76.554C201.499 76.9896 201.499 77.4288 201.553 77.8608L201.193 77.8932ZM201.553 75.0132L201.193 74.9772C201.193 74.88 201.211 74.7792 201.222 74.6748C201.265 74.2896 201.319 73.9044 201.384 73.5372L201.744 73.5984C201.683 73.9584 201.629 74.3364 201.586 74.7144C201.6 74.826 201.6 74.9232 201.571 75.024L201.553 75.0132ZM202.054 72.2124L201.694 72.1152C201.827 71.64 201.982 71.1756 202.154 70.7328L202.489 70.8624C202.326 71.3081 202.186 71.7624 202.072 72.2232L202.054 72.2124ZM219.992 70.1136C219.791 70.1136 219.582 70.0848 219.377 70.056C219.096 70.0164 218.815 69.9696 218.538 69.9156L218.61 69.5556C218.876 69.606 219.154 69.6528 219.427 69.6924C219.622 69.7176 219.82 69.7356 220.01 69.7464L219.992 70.1136ZM221.472 70.002L221.396 69.642C221.848 69.5487 222.281 69.3808 222.678 69.1452L222.865 69.4512C222.441 69.7136 221.976 69.9034 221.49 70.0128L221.472 70.002ZM203.09 69.5736L202.77 69.4044C202.999 68.9751 203.253 68.5592 203.53 68.1588L203.825 68.364C203.562 68.756 203.322 69.1636 203.108 69.5844L203.09 69.5736ZM217.13 69.552C216.666 69.4046 216.209 69.2327 215.762 69.0372L215.91 68.706C216.343 68.8983 216.786 69.0654 217.238 69.2064L217.13 69.552ZM223.97 68.4288L223.672 68.2272C223.928 67.8553 224.08 67.4214 224.111 66.9708L224.471 66.996C224.44 67.5124 224.271 68.0111 223.981 68.4396L223.97 68.4288ZM214.466 68.3748C214.045 68.1299 213.638 67.8619 213.246 67.572L213.458 67.284C213.84 67.5651 214.236 67.8248 214.646 68.0616L214.466 68.3748ZM204.71 67.2516L204.444 67.0104C204.77 66.6479 205.117 66.3053 205.484 65.9844L205.722 66.2544C205.369 66.5704 205.035 66.907 204.721 67.2624L204.71 67.2516ZM212.123 66.6432C211.764 66.3129 211.424 65.9632 211.104 65.5956L211.374 65.358C211.686 65.715 212.016 66.0551 212.364 66.3768L212.123 66.6432ZM223.841 65.6676C223.635 65.2562 223.35 64.8893 223.002 64.5876L223.24 64.3176C223.622 64.6485 223.936 65.0508 224.165 65.502L223.841 65.6676ZM206.842 65.3832L206.636 65.088C207.039 64.813 207.456 64.5595 207.886 64.3284L208.055 64.6452C207.641 64.8737 207.24 65.1237 206.852 65.394L206.842 65.3832ZM210.204 64.4472C210.067 64.2528 209.934 64.0548 209.808 63.8496L209.34 64.0332L209.203 63.702L209.617 63.5364C209.552 63.4284 209.488 63.3204 209.426 63.2124L209.74 63.036C209.812 63.162 209.884 63.288 209.959 63.396C210.161 63.324 210.366 63.2556 210.575 63.1908L210.679 63.5508C210.503 63.6048 210.319 63.6624 210.154 63.7236C210.265 63.9 210.38 64.0836 210.514 64.2384L210.204 64.4472ZM221.843 63.828C221.494 63.6544 221.133 63.5076 220.763 63.3888L220.525 63.3132L220.63 62.9532L220.874 63.0324C221.26 63.1553 221.636 63.3082 221.998 63.4896L221.843 63.828ZM212.058 63.1836L211.982 62.8236C212.447 62.7192 212.929 62.6328 213.422 62.5644L213.476 62.9244C213.001 63 212.53 63.09 212.069 63.1944L212.058 63.1836ZM219.15 62.9892C218.7 62.91 218.225 62.8488 217.739 62.8056L217.768 62.4456C218.268 62.4888 218.754 62.55 219.208 62.6328L219.15 62.9892ZM214.884 62.7804L214.859 62.4204C215.287 62.3952 215.716 62.3808 216.14 62.3808H216.317V62.7408H216.144C215.737 62.7516 215.312 62.7624 214.895 62.7912L214.884 62.7804ZM208.8 61.92C208.606 61.4808 208.44 61.0236 208.278 60.5592L208.638 60.4476C208.789 60.9012 208.958 61.3476 209.146 61.776L208.8 61.92ZM207.889 59.1552C207.781 58.6908 207.691 58.2084 207.623 57.7152L207.983 57.6648C208.051 58.14 208.138 58.6116 208.242 59.0688L207.889 59.1552ZM207.486 56.2752C207.468 55.9512 207.457 55.62 207.457 55.2888C207.457 55.134 207.457 54.9756 207.457 54.8208H207.817C207.817 54.9756 207.817 55.1268 207.817 55.2816C207.817 55.6056 207.817 55.9332 207.842 56.2464L207.486 56.2752ZM207.914 53.3952L207.554 53.3592C207.605 52.884 207.673 52.398 207.756 51.9192L208.116 51.9804C208.019 52.4592 207.95 52.92 207.904 53.4024L207.914 53.3952ZM208.408 50.5836L208.048 50.4972C208.163 50.0328 208.296 49.5648 208.444 49.0968L208.804 49.2084C208.642 49.68 208.508 50.1372 208.397 50.5908L208.408 50.5836ZM209.272 47.8584L208.937 47.7288C209.113 47.2788 209.297 46.8288 209.516 46.3932L209.84 46.5516C209.624 46.9836 209.434 47.4228 209.261 47.88L209.272 47.8584ZM210.51 45.2916L210.197 45.108C210.442 44.694 210.704 44.28 210.978 43.884L211.273 44.0892C210.992 44.4852 210.737 44.8884 210.499 45.2988L210.51 45.2916ZM212.134 42.948L211.853 42.7212C212.155 42.3612 212.479 41.9796 212.814 41.6412L213.073 41.8896C212.735 42.228 212.418 42.588 212.123 42.9552L212.134 42.948ZM214.092 40.8744L213.851 40.608C214.211 40.2876 214.571 39.9708 214.956 39.6648L215.179 39.9492C214.794 40.2552 214.427 40.5684 214.081 40.8816L214.092 40.8744ZM216.328 39.096L216.122 38.7972C216.515 38.5272 216.925 38.2608 217.343 38.0088L217.526 38.3148C217.109 38.5704 216.72 38.8332 216.317 39.1032L216.328 39.096ZM218.772 37.6092L218.603 37.2924C219.028 37.0656 219.467 36.8496 219.906 36.648L220.057 36.9756C219.6 37.1808 219.179 37.3968 218.761 37.6164L218.772 37.6092ZM221.375 36.414L221.242 36.0756C221.695 35.8992 222.152 35.7156 222.606 35.5824L222.721 35.9424C222.264 36.0792 221.81 36.2448 221.364 36.4212L221.375 36.414Z" fill="#263238"/>
<path d="M224.15 35.5032L224.06 35.1432C224.507 35.028 224.78 34.9776 224.78 34.9776L224.845 35.3376C224.845 35.3376 224.586 35.3916 224.15 35.5032Z" fill="#263238"/>
<path d="M230.515 33.1776C229.597 30.3336 223.448 31.356 224.647 35.0748C225.846 38.7936 231.433 36.0252 230.515 33.1776Z" fill="#263238"/>
<path d="M221.303 32.04C221.35 30.7908 223.085 29.8296 225.54 30.2724C227.995 30.7152 230.303 32.3712 230.303 32.3712C230.303 32.3712 227.88 33.84 225.4 34.11C222.919 34.38 221.256 33.2856 221.303 32.04Z" fill="#EBEBEB"/>
<path d="M230.303 32.364C229.028 32.364 227.758 32.328 226.487 32.2884C225.216 32.2488 223.942 32.184 222.671 32.0832C223.945 32.0832 225.22 32.1156 226.49 32.1552C227.761 32.1948 229.036 32.2596 230.303 32.364Z" fill="#263238"/>
<path d="M223.769 30.9276C224.492 31.2737 225.175 31.7 225.803 32.1984C225.441 32.0285 225.09 31.8361 224.752 31.6224C224.411 31.4102 224.083 31.1782 223.769 30.9276Z" fill="#263238"/>
<path d="M227.106 32.2452C226.455 32.773 225.749 33.2292 225 33.606C225.655 33.0775 226.364 32.6213 227.117 32.2452H227.106Z" fill="#263238"/>
<path d="M227.477 31.5432C227.84 31.7176 228.158 31.974 228.406 32.292C228.224 32.2063 228.054 32.0987 227.898 31.9716C227.742 31.8453 227.6 31.7016 227.477 31.5432Z" fill="#263238"/>
<path d="M223.643 39.438C224.41 40.4244 226.379 40.1868 228.11 38.394C229.842 36.6012 230.76 33.9048 230.76 33.9048C230.76 33.9048 227.923 34.1208 225.76 35.3448C223.596 36.5688 222.872 38.448 223.643 39.438Z" fill="#EBEBEB"/>
<path d="M230.76 33.9048C229.723 34.6248 228.715 35.424 227.704 36.198C226.692 36.972 225.702 37.7712 224.734 38.5956C225.77 37.8756 226.778 37.08 227.786 36.306C228.794 35.532 229.777 34.7328 230.76 33.9048Z" fill="#263238"/>
<path d="M226.289 38.88C226.481 38.5303 226.653 38.1697 226.804 37.8C226.957 37.4293 227.087 37.0493 227.192 36.6624C226.999 37.0118 226.827 37.3725 226.678 37.7424C226.526 38.1137 226.396 38.4935 226.289 38.88Z" fill="#263238"/>
<path d="M228.24 35.8704C227.398 35.8254 226.553 35.87 225.72 36.0036C226.14 36.0288 226.56 36.0288 226.98 36.0036C227.402 35.983 227.823 35.9386 228.24 35.8704Z" fill="#263238"/>
<path d="M228.935 36.2268C229.031 36.049 229.106 35.8605 229.158 35.6652C229.211 35.4713 229.243 35.272 229.252 35.0712C229.06 35.4275 228.952 35.8226 228.935 36.2268Z" fill="#263238"/>
<path d="M230.515 33.1776C230.312 33.2436 230.094 33.2478 229.888 33.1896C229.682 33.1315 229.498 33.0136 229.36 32.8509C229.221 32.6882 229.134 32.488 229.109 32.2757C229.084 32.0634 229.123 31.8485 229.22 31.6582C229.318 31.4679 229.469 31.3109 229.656 31.2068C229.843 31.1028 230.056 31.0566 230.269 31.0739C230.482 31.0913 230.686 31.1715 230.853 31.3044C231.02 31.4373 231.145 31.6168 231.21 31.8204C231.297 32.0925 231.273 32.3881 231.143 32.6425C231.013 32.8969 230.787 33.0893 230.515 33.1776Z" fill="#455A64"/>
<path d="M231.178 35.2332C230.974 35.299 230.756 35.303 230.551 35.2448C230.345 35.1866 230.162 35.0688 230.023 34.9062C229.885 34.7437 229.797 34.5437 229.772 34.3316C229.748 34.1195 229.786 33.9048 229.883 33.7146C229.98 33.5243 230.132 33.3672 230.318 33.263C230.504 33.1588 230.718 33.1122 230.931 33.1291C231.143 33.146 231.347 33.2256 231.514 33.3579C231.682 33.4902 231.806 33.6693 231.872 33.8724C231.916 34.0074 231.933 34.1497 231.922 34.2911C231.91 34.4326 231.871 34.5704 231.807 34.6968C231.742 34.8232 231.654 34.9356 231.546 35.0276C231.438 35.1197 231.313 35.1895 231.178 35.2332Z" fill="#455A64"/>
<path d="M113.152 34.3152C112.979 35.9687 112.351 37.5418 111.336 38.8589C110.321 40.176 108.961 41.1852 107.406 41.774C105.851 42.3629 104.164 42.5081 102.531 42.1935C100.899 41.8789 99.3858 41.1168 98.1612 39.9924L93.672 40.6512L95.9184 36.7704C95.4047 35.5077 95.1855 34.1445 95.2775 32.7843C95.3695 31.4242 95.7703 30.1029 96.4494 28.9209C97.1284 27.7388 98.068 26.7271 99.1966 25.9625C100.325 25.1979 101.613 24.7005 102.963 24.5083C104.313 24.316 105.688 24.4338 106.985 24.8528C108.283 25.2718 109.467 25.9809 110.45 26.9263C111.432 27.8716 112.186 29.0284 112.654 30.3087C113.122 31.5891 113.292 32.9592 113.152 34.3152Z" fill="white"/>
<path d="M113.152 34.3152C112.983 35.9679 112.36 37.5416 111.352 38.862C110.859 39.5298 110.265 40.1165 109.591 40.6008C108.932 41.1032 108.205 41.5093 107.431 41.8068C106.657 42.1116 105.844 42.3055 105.016 42.3828C104.601 42.42 104.185 42.4284 103.77 42.408C103.353 42.3973 102.938 42.3539 102.528 42.2784C100.873 41.974 99.3365 41.2148 98.0892 40.086L98.1936 40.1184L93.7116 40.806L93.384 40.8564L93.5496 40.5684L95.7816 36.6804V36.8352C95.2549 35.5491 95.031 34.1592 95.1271 32.7728C95.2232 31.3864 95.6368 30.0407 96.336 28.8396C97.0343 27.6423 97.9942 26.6184 99.144 25.8444C100.292 25.0807 101.598 24.5868 102.964 24.3997C104.33 24.2127 105.721 24.3374 107.032 24.7644C108.329 25.2057 109.511 25.9314 110.491 26.8884C111.469 27.843 112.218 29.0079 112.678 30.2948C113.139 31.5816 113.301 32.9565 113.152 34.3152ZM113.152 34.3152C113.297 32.9632 113.13 31.5959 112.663 30.3187C112.196 29.0416 111.442 27.8889 110.459 26.9495C109.476 26.0102 108.29 25.3094 106.993 24.9011C105.695 24.4929 104.322 24.3882 102.978 24.5952C101.647 24.7921 100.38 25.2922 99.2736 26.0568C98.1766 26.8274 97.2602 27.8273 96.588 28.9872C95.9261 30.1497 95.536 31.4469 95.4468 32.7816C95.3591 34.1253 95.5757 35.4715 96.0804 36.72L96.1128 36.7992L96.0696 36.8748L93.8088 40.7484L93.6504 40.5108L98.1432 39.8808H98.2044L98.2476 39.9204C99.4485 41.0382 100.937 41.7998 102.546 42.12C102.947 42.2017 103.354 42.251 103.763 42.2676C104.171 42.2964 104.582 42.2964 104.99 42.2676C105.81 42.2015 106.617 42.0235 107.388 41.7384C108.161 41.457 108.889 41.064 109.548 40.572C110.219 40.0916 110.814 39.5127 111.312 38.8548C112.333 37.5408 112.97 35.9694 113.152 34.3152Z" fill="#263238"/>
<path d="M99.8424 37.566C99.8355 37.4468 99.8531 37.3275 99.8943 37.2154C99.9354 37.1033 99.9991 37.0009 100.082 36.9145C100.164 36.8281 100.263 36.7595 100.373 36.7131C100.483 36.6666 100.601 36.6432 100.721 36.6444C100.965 36.6444 101.2 36.7415 101.372 36.9144C101.545 37.0872 101.642 37.3216 101.642 37.566C101.642 37.8104 101.545 38.0449 101.372 38.2177C101.2 38.3905 100.965 38.4876 100.721 38.4876C100.601 38.4888 100.483 38.4654 100.373 38.419C100.263 38.3725 100.164 38.304 100.082 38.2175C99.9991 38.1311 99.9354 38.0287 99.8943 37.9166C99.8531 37.8045 99.8355 37.6852 99.8424 37.566ZM100.202 35.4384L99.9936 28.296H101.434L101.225 35.4384H100.202Z" fill="#F4B667"/>
<path d="M103.266 37.566C103.259 37.4471 103.277 37.3281 103.318 37.2163C103.358 37.1044 103.422 37.0022 103.504 36.9158C103.586 36.8295 103.685 36.7608 103.794 36.7141C103.904 36.6675 104.022 36.6437 104.141 36.6444C104.385 36.6444 104.62 36.7415 104.792 36.9144C104.965 37.0872 105.062 37.3216 105.062 37.566C105.062 37.8104 104.965 38.0449 104.792 38.2177C104.62 38.3905 104.385 38.4876 104.141 38.4876C104.022 38.4883 103.904 38.4646 103.794 38.4179C103.685 38.3712 103.586 38.3026 103.504 38.2162C103.422 38.1298 103.358 38.0276 103.318 37.9158C103.277 37.8039 103.259 37.6849 103.266 37.566ZM103.626 35.4384L103.428 28.296H104.868L104.659 35.4384H103.626Z" fill="#F4B667"/>
<path d="M106.686 37.566C106.679 37.4468 106.697 37.3275 106.738 37.2154C106.779 37.1033 106.843 37.0009 106.925 36.9145C107.008 36.8281 107.107 36.7595 107.217 36.7131C107.327 36.6666 107.445 36.6432 107.564 36.6444C107.809 36.6444 108.043 36.7415 108.216 36.9144C108.389 37.0872 108.486 37.3216 108.486 37.566C108.486 37.8104 108.389 38.0449 108.216 38.2177C108.043 38.3905 107.809 38.4876 107.564 38.4876C107.445 38.4888 107.327 38.4654 107.217 38.419C107.107 38.3725 107.008 38.304 106.925 38.2175C106.843 38.1311 106.779 38.0287 106.738 37.9166C106.697 37.8045 106.679 37.6852 106.686 37.566ZM107.046 35.4384L106.837 28.296H108.277L108.072 35.4384H107.046Z" fill="#F4B667"/>
</svg>
